<svg width="32" height="32" viewBox="0 0 40 37" fill="none" xmlns="http://www.w3.org/2000/svg">
<path d="M20 14.6527C23.7538 14.6527 26.7969 11.5138 26.7969 7.64183C26.7969 3.76986 23.7538 0.631012 20 0.631012C16.2462 0.631012 13.2031 3.76986 13.2031 7.64183C13.2031 11.5138 16.2462 14.6527 20 14.6527Z" fill="white"/>
<path d="M33.75 14.6526C36.1231 14.6526 38.0469 12.6683 38.0469 10.2205C38.0469 7.77269 36.1231 5.78836 33.75 5.78836C31.3769 5.78836 29.4531 7.77269 29.4531 10.2205C29.4531 12.6683 31.3769 14.6526 33.75 14.6526Z" fill="white"/>
<path d="M6.25 14.6526C8.6231 14.6526 10.5469 12.6683 10.5469 10.2205C10.5469 7.77269 8.6231 5.78836 6.25 5.78836C3.8769 5.78836 1.95312 7.77269 1.95312 10.2205C1.95312 12.6683 3.8769 14.6526 6.25 14.6526Z" fill="white"/>
<path d="M10.4836 18.6327C8.79219 17.2033 7.26039 17.3925 5.30469 17.3925C2.37969 17.3925 0 19.8326 0 22.8312V31.6318C0 32.934 1.03047 33.9929 2.29766 33.9929C7.76844 33.9929 7.10938 34.095 7.10938 33.7495C7.10938 27.5134 6.39328 22.9402 10.4836 18.6327Z" fill="white"/>
<path d="M21.8602 17.4247C18.4442 17.1308 15.4751 17.4281 12.9141 19.6085C8.62836 23.1494 9.45312 27.917 9.45312 33.7494C9.45312 35.2926 10.6703 36.5715 12.1891 36.5715C28.6798 36.5715 29.3362 37.1202 30.3141 34.8865C30.6348 34.1311 30.5469 34.3712 30.5469 27.1448C30.5469 21.4051 25.7287 17.4247 21.8602 17.4247Z" fill="white"/>
<path d="M34.6953 17.3925C32.7289 17.3925 31.2055 17.2052 29.5164 18.6326C33.5762 22.9081 32.8906 27.1693 32.8906 33.7494C32.8906 34.0971 32.3435 33.9928 37.6203 33.9928C38.9328 33.9928 40 32.896 40 31.5479V22.8311C40 19.8325 37.6203 17.3925 34.6953 17.3925Z" fill="white"/>
</svg>
