<svg width="32" height="32" viewBox="0 0 40 31" fill="none" xmlns="http://www.w3.org/2000/svg">
<path d="M34.9158 13.5153V1.95899C34.9158 1.59475 34.7595 1.1974 34.4783 0.998724C34.447 0.998724 34.447 0.998724 34.447 0.998724C34.2595 0.866274 34.072 0.800049 33.822 0.800049H9.66413C9.03909 0.800049 8.57031 1.29674 8.57031 1.95899V12.5219H19.4773C20.3523 12.5219 21.0711 13.3166 21.0711 14.2438V19.3763H29.6654C29.6654 16.1974 29.6654 15.2372 29.6654 15.0054C29.6654 15.0054 29.6654 15.0054 29.6654 14.9392C29.6654 14.1445 30.2592 13.5484 30.978 13.5484H34.9158V13.5153Z" fill="white"/>
<path d="M30.25 16.9922H40.0006V27.9856H30.25V16.9922Z" fill="white"/>
<path d="M21.0273 23.1179H29.6217V20.0715H21.0273V23.1179Z" fill="white"/>
<path d="M20.3372 14.2438C20.3372 13.6477 19.9309 13.2173 19.3996 13.2173H1.8985C1.36721 13.2173 0.960938 13.6809 0.960938 14.2438V28.118H20.3372V14.2438Z" fill="white"/>
<path d="M0 29.7405C0 30.3035 0.406277 30.767 0.968813 30.767H20.4076C20.9389 30.767 21.3764 30.3366 21.3764 29.7405V28.7803H0L0 29.7405Z" fill="white"/>
<path d="M39.3131 14.2437H30.9375C30.5625 14.2437 30.25 14.5417 30.25 14.9721V16.3298H40.0006V14.9721C40.0006 14.5417 39.7194 14.2437 39.3131 14.2437ZM36.3754 15.6013H33.9065C33.719 15.6013 33.594 15.4688 33.594 15.2701C33.594 15.0715 33.719 14.939 33.9065 14.939H36.3754C36.5629 14.939 36.6879 15.0715 36.6879 15.2701C36.7192 15.4688 36.5942 15.6013 36.3754 15.6013ZM37.563 15.6013H37.438C37.2505 15.6013 37.1255 15.4688 37.1255 15.2701C37.1255 15.0715 37.2505 14.939 37.438 14.939H37.563C37.7505 14.939 37.8755 15.0715 37.8755 15.2701C37.8755 15.4688 37.7505 15.6013 37.563 15.6013Z" fill="white"/>
<path d="M30.25 30.0715C30.25 30.4688 30.5313 30.8 30.9375 30.8H39.3131C39.6881 30.8 40.0006 30.4688 40.0006 30.0715V28.7139H30.25V30.0715ZM33.8752 29.4092H36.3441C36.5317 29.4092 36.6567 29.5417 36.6567 29.7404C36.6567 29.939 36.5317 30.0715 36.3441 30.0715H33.8752C33.6877 30.0715 33.5627 29.939 33.5627 29.7404C33.5627 29.5417 33.6877 29.4092 33.8752 29.4092Z" fill="white"/>
<path d="M25.5276 25.6346H24.3713V23.7803H21.0273V26.2968H25.4964C25.6839 26.2968 25.8089 26.1644 25.8089 25.9657C25.8402 25.767 25.7151 25.6346 25.5276 25.6346Z" fill="white"/>
</svg>
