<svg width="32" height="32" viewBox="0 0 32 32" fill="none" xmlns="http://www.w3.org/2000/svg">
<path d="M15.5155 20.1542L4.77543 14.878L2.0021 17.9693C5.89645 19.8912 9.48481 21.7063 13.368 23.6283L15.5155 20.1672V20.1542ZM19.0399 0V5.58349H21.8215C22.0126 5.57347 22.2033 5.60796 22.3766 5.68385C22.5499 5.75975 22.7004 5.8747 22.8146 6.0184C23.332 6.74758 22.6227 7.46896 22.1331 7.97418C20.7423 9.40912 17.5823 12.6097 16.8924 13.365C16.7859 13.4912 16.6503 13.5933 16.4956 13.6634C16.341 13.7336 16.1713 13.77 15.9995 13.77C15.8276 13.77 15.658 13.7336 15.5034 13.6634C15.3487 13.5933 15.2131 13.4912 15.1066 13.365C14.3945 12.5837 11.0592 9.23463 9.73238 7.83616C9.2734 7.35177 8.70316 6.69029 9.17605 6.01319C9.29 5.86987 9.44005 5.75516 9.61283 5.67928C9.78561 5.6034 9.97575 5.5687 10.1663 5.57828H12.948V0H19.0399ZM9.86034 12.068L5.50423 14.0941L16.2109 19.3625L26.937 14.0837L22.3362 11.8441L23.0872 11.0628L27.2597 13.0785L30.2834 10.417L25.6964 8.07314C25.8728 7.74639 25.9893 7.39428 26.0413 7.03145L31.7799 9.87007C31.8175 9.88888 31.8514 9.91354 31.8801 9.94299C31.9181 9.97854 31.9483 10.0208 31.9688 10.0672C31.9894 10.1137 32 10.1635 32 10.2138C32 10.2641 31.9894 10.3139 31.9688 10.3604C31.9483 10.4069 31.9181 10.4491 31.8801 10.4847L28.1944 13.8702L31.7633 17.8703C31.8332 17.9489 31.8672 18.0501 31.8579 18.1521C31.8485 18.254 31.7965 18.3484 31.7132 18.4146C31.6867 18.4329 31.6588 18.4494 31.6297 18.4641L28.4169 20.0526V26.0111C28.4168 26.0873 28.3927 26.1618 28.3477 26.2252C28.3027 26.2886 28.2387 26.3383 28.1638 26.3679L16.5753 31.8733C16.5304 31.9197 16.4741 31.9552 16.4112 31.9767C16.3483 31.9981 16.2808 32.0049 16.2145 31.9965C16.1482 31.988 16.0851 31.9645 16.0307 31.9281C15.9763 31.8917 15.9321 31.8433 15.9021 31.7873L4.29142 26.3549C4.22362 26.3227 4.16668 26.2735 4.1269 26.2128C4.08713 26.1521 4.06609 26.0823 4.06611 26.0111V20.0943L0.797638 18.4901C0.768599 18.4755 0.740712 18.459 0.714188 18.4406C0.630884 18.3744 0.578885 18.2801 0.569508 18.1781C0.560131 18.0762 0.594134 17.9749 0.664118 17.8963L4.14121 13.99L0.105001 10.417C0.0684091 10.3785 0.0403592 10.3336 0.0224866 10.2849C0.0046139 10.2362 -0.00272392 10.1847 0.000900829 10.1333C0.00452558 10.0819 0.0190404 10.0317 0.0435991 9.9856C0.0681579 9.93952 0.102269 9.89847 0.143945 9.86486C0.169081 9.84599 0.196094 9.82942 0.224613 9.81538L6.04944 6.72936C6.07651 7.10608 6.16178 7.47713 6.30257 7.83095L1.58763 10.3414L4.87836 13.2061L9.07591 11.2607L9.86868 12.0707L9.86034 12.068ZM27.7076 14.9171L16.987 20.1829L19.076 23.6517L30.3557 17.9224L27.7076 14.9171Z" fill="white"/>
</svg>
