<svg width="40" height="40" viewBox="0 0 428 428" fill="none" xmlns="http://www.w3.org/2000/svg">
<path d="M43.3327 195.133C47.5994 156.733 64.666 120.467 92.3994 92.7335C126.533 60.7335 169.199 43.6668 213.999 43.6668C256.666 43.6668 301.466 60.7335 335.599 92.7335L299.333 129H405.999V22.3335L365.466 62.8668C282.266 -20.3332 145.733 -20.3332 62.5327 62.8668C28.3994 97.0001 7.06602 141.8 0.666016 190.867V214.333H43.3327C43.3327 207.933 43.3327 201.533 43.3327 195.133Z" fill="white"/>
<path d="M384.667 214.333C384.667 259.133 367.6 303.933 335.6 335.933C301.467 367.933 258.8 385 214 385C169.2 385 126.533 367.933 92.4 335.933L128.667 299.666H22V406.333L62.5333 365.8C103.067 406.333 156.4 427.666 214 427.666C271.6 427.666 324.933 406.333 365.467 365.8C406 325.266 427.333 269.8 427.333 214.333H384.667Z" fill="white"/>
</svg>
