<svg width="34" height="34" viewBox="0 0 41 49" fill="none" xmlns="http://www.w3.org/2000/svg">
<g clip-path="url(#clip0_1130_1181)">
<path d="M28 18.8197V24.6997L26 23.9997L24 26.9897V21.1297L18 24.5897V41.8897L33 33.2297V15.9297L28 18.8197Z" fill="white"/>
<path d="M16 24.5897L1 15.9297V33.2297L16 41.8897V24.5897Z" fill="white"/>
<path d="M27.05 17.0634L32.02 14.1934L17 5.52344L12.03 8.39344L27.05 17.0634Z" fill="white"/>
<path d="M8.32998 10.5234L1.97998 14.1934L17 22.8634L23.35 19.1934L8.32998 10.5234Z" fill="white"/>
<path d="M30.61 43.78C26.133 46.8598 20.7434 48.3292 15.3228 47.9477C9.9022 47.5662 4.7715 45.3565 0.77 41.68C0.673218 41.5867 0.596236 41.4749 0.543655 41.3512C0.491074 41.2275 0.463974 41.0944 0.463974 40.96C0.463974 40.8256 0.491074 40.6925 0.543655 40.5688C0.596236 40.4451 0.673218 40.3333 0.77 40.24C0.956929 40.0568 1.20825 39.9541 1.47 39.9541C1.73175 39.9541 1.98307 40.0568 2.17 40.24C6.41722 44.1006 12.005 46.1485 17.7411 45.9467C23.4771 45.745 28.9072 43.3095 32.8727 39.1601C36.8382 35.0106 39.025 29.4757 38.9666 23.7364C38.9082 17.9971 36.6091 12.5079 32.56 8.44C28.7833 4.63276 23.7202 2.37435 18.3641 2.10793C13.0081 1.84152 7.74584 3.58634 3.61 7H8C8.26522 7 8.51957 7.10536 8.70711 7.29289C8.89464 7.48043 9 7.73478 9 8C9 8.26522 8.89464 8.51957 8.70711 8.70711C8.51957 8.89464 8.26522 9 8 9H1C0.734784 9 0.48043 8.89464 0.292893 8.70711C0.105357 8.51957 0 8.26522 0 8V1C0 0.734784 0.105357 0.48043 0.292893 0.292893C0.48043 0.105357 0.734784 0 1 0C1.26522 0 1.51957 0.105357 1.70711 0.292893C1.89464 0.48043 2 0.734784 2 1V5.73C6.50524 1.85459 12.3119 -0.169176 18.25 0.0664902C24.188 0.302157 29.8161 2.77974 34 7C36.4954 9.49167 38.411 12.5026 39.6107 15.8187C40.8103 19.1348 41.2645 22.6745 40.9408 26.186C40.6172 29.6975 39.5237 33.0945 37.7381 36.1354C35.9525 39.1763 33.5188 41.7864 30.61 43.78Z" fill="white"/>
</g>
<defs>
<clipPath id="clip0_1130_1181">
<rect width="40.99" height="48.01" fill="white"/>
</clipPath>
</defs>
</svg>
