<?xml version="1.0" encoding="iso-8859-1"?>
<!-- Uploaded to: SVG Repo, www.svgrepo.com, Generator: SVG Repo Mixer Tools -->
<svg fill="#ffffff" height="34px" width="34px" version="1.1" id="Layer_1" xmlns="http://www.w3.org/2000/svg" xmlns:xlink="http://www.w3.org/1999/xlink" 
	 viewBox="0 0 508 508" xml:space="preserve">
<g>
	<g>
		<path d="M375.4,263.7H132.6c-7.8,0-14.1,6.3-14.1,14.1v159.7c0,7.8,6.3,14.1,14.1,14.1h242.9c7.8,0,14.1-6.3,14.1-14.1V277.8
			C389.5,270,383.2,263.7,375.4,263.7z M361.3,423.3L361.3,423.3H146.7v-30.1h7.2c7.8,0,14.1-6.3,14.1-14.1s-6.3-14.1-14.1-14.1
			h-7.2v-28.2h35.4c7.8,0,14.1-6.3,14.1-14.1s-6.3-14.1-14.1-14.1h-35.4v-16.7h214.6V423.3z"/>
	</g>
</g>
<g>
	<g>
		<path d="M160.2,45.4c-7.8,0-14.1,6.3-14.1,14.1V122c0,7.8,6.3,14.2,14.1,14.2s14.1-6.3,14.1-14.1V59.5
			C174.3,51.7,168,45.4,160.2,45.4z"/>
	</g>
</g>
<g>
	<g>
		<path d="M227.1,45.4c-7.8,0-14.1,6.3-14.1,14.1V122c0,7.8,6.3,14.2,14.1,14.2c7.8,0,14.1-6.3,14.1-14.1V59.5
			C241.2,51.7,234.9,45.4,227.1,45.4z"/>
	</g>
</g>
<g>
	<g>
		<path d="M293.9,45.4c-7.8,0-14.1,6.3-14.1,14.1V122c0,7.8,6.3,14.2,14.1,14.2s14.1-6.3,14.1-14.1V59.5
			C308,51.7,301.7,45.4,293.9,45.4z"/>
	</g>
</g>
<g>
	<g>
		<path d="M360.8,45.4c-7.8,0-14.1,6.3-14.1,14.1V122c-0.1,7.8,6.3,14.2,14.1,14.2s14.1-6.3,14.1-14.1V59.5
			C374.9,51.7,368.6,45.4,360.8,45.4z"/>
	</g>
</g>
<g>
	<g>
		<path d="M446,178.6V42.3C446,19,427,0,403.7,0h-284c-3.7,0-7.3,1.5-10,4.1L66.1,47.6c-2.6,2.6-4.1,6.2-4.1,10v121
			c0,15.5,16.1,14.1,16.1,14.1v27.7c0,0-16.1-0.7-16.1,14.1v231.1C62,489,81,508,104.3,508h299.3c23.3,0,42.3-19,42.3-42.3V234.5
			c0-15.7-16-14.1-16-14.1v-27.7C430,192.7,446,194,446,178.6z M417.8,465.6c0,7.8-6.3,14.1-14.1,14.1H104.3
			c-7.8,0-14.1-6.3-14.1-14.1v-217c0,0,16.1,0.2,16.1-14.1v-55.9c0-14.7-16.1-14.1-16.1-14.1V63.4l35.2-35.2h278.2
			c7.8,0,14.1,6.3,14.1,14.1v122.2c-1.283,0.002-15.9,0.332-15.9,14.1v55.9c0,15.1,16,14.1,16,14.1V465.6z"/>
	</g>
</g>
</svg>