<svg width="38" height="38" viewBox="0 0 38 38" fill="none" xmlns="http://www.w3.org/2000/svg">
<path d="M33.2685 8.14862L25.3487 0.231934C25.2003 0.0834961 24.9993 0 24.789 0H11.3337C10.1666 0 9.15664 0.641398 8.60742 1.58331H21.6223C22.2563 1.58331 22.853 1.83068 23.3015 2.27911L31.2212 10.1958C31.6696 10.6442 31.917 11.241 31.917 11.875V34.393C32.859 33.8437 33.5004 32.8338 33.5004 31.6667V8.70831C33.5004 8.49805 33.4169 8.29706 33.2685 8.14862Z" fill="white"/>
<path d="M22.1816 3.39844C22.0332 3.25 21.8322 3.1665 21.6219 3.1665H8.16669C6.42018 3.1665 5 4.58668 5 6.33312V34.8331C5 36.5796 6.42018 37.9998 8.16669 37.9998H27.1667C28.9131 37.9998 30.3334 36.5796 30.3334 34.8331V11.8748C30.3334 11.6646 30.2499 11.4635 30.1015 11.3151L22.1816 3.39844ZM16.0833 16.6248C16.0833 16.1872 16.4374 15.8331 16.875 15.8331H19.25C19.6876 15.8331 20.0417 16.1872 20.0417 16.6248V19.7915C20.0417 20.2291 19.6876 20.5832 19.25 20.5832H16.875C16.4374 20.5832 16.0833 20.2291 16.0833 19.7915V16.6248ZM9.75 18.2081C9.75 16.8985 10.8153 15.8331 12.125 15.8331H13.7083C14.1459 15.8331 14.5 16.1872 14.5 16.6248V19.7915C14.5 20.2291 14.1459 20.5832 13.7083 20.5832H10.5416C10.104 20.5832 9.74993 20.2291 9.74993 19.7915L9.75 18.2081ZM14.5 32.4581C14.5 32.8957 14.1459 33.2498 13.7083 33.2498H12.125C10.8153 33.2498 9.75 32.1845 9.75 30.8748V29.2915C9.75 28.8539 10.1041 28.4998 10.5417 28.4998H13.7084C14.146 28.4998 14.5001 28.8539 14.5001 29.2915V32.4581H14.5ZM20.8333 32.4581C20.8333 32.8957 20.4792 33.2498 20.0416 33.2498H16.875C16.4374 33.2498 16.0833 32.8957 16.0833 32.4581V29.2914C16.0833 28.8538 16.4374 28.4997 16.875 28.4997H20.0417C20.4793 28.4997 20.8334 28.8538 20.8334 29.2914V32.4581H20.8333ZM25.5833 30.8748C25.5833 32.1845 24.518 33.2498 23.2083 33.2498C22.7707 33.2498 22.4166 32.8957 22.4166 32.4581V27.7081C22.4166 27.2713 22.0618 26.9164 21.6249 26.9164H10.5417C10.1041 26.9164 9.75 26.5623 9.75 26.1247V22.958C9.75 22.5205 10.1041 22.1664 10.5417 22.1664H24.7917C25.2293 22.1664 25.5834 22.5205 25.5834 22.958V30.8748H25.5833ZM25.5833 19.7915C25.5833 20.2291 25.2292 20.5832 24.7916 20.5832H22.4166C21.979 20.5832 21.6249 20.2291 21.6249 19.7915V16.6248C21.6249 16.1872 21.979 15.8331 22.4166 15.8331H23.2083C24.518 15.8331 25.5833 16.8985 25.5833 18.2081V19.7915Z" fill="white"/>
</svg>
