<svg width="128" height="128" viewBox="0 0 128 128" fill="none" xmlns="http://www.w3.org/2000/svg">
<path d="M128 120.52H123.758V38.7168H128V31.2363H99.3418V46.1133H111.222V53.5938H99.3418V61.0752H111.222V68.5557H99.3418V76.0361H111.222V83.5166H99.3418V90.998H111.222V98.4785H99.3418V120.521H92.0918V17.1152L64 0L35.9082 17.1152V120.52H28.6582V98.4775H16.8613V90.998H28.6582V83.5166H16.8613V76.0361H28.6582V68.5547H16.8613V61.0752H28.6582V53.5938H16.8613V46.1133H28.6582V31.2363H0V38.7168H4.3252V120.52H0V128H128V120.52ZM74.4736 30.1562H81.9541V37.6367H74.4736V30.1562ZM74.4736 45.8643H81.9541V53.3447H74.4736V45.8643ZM74.4736 61.5732H81.9541V69.0537H74.4736V61.5732ZM74.4736 77.2812H81.9541V84.7617H74.4736V77.2812ZM74.4736 92.9893H81.9541V100.47H74.4736V92.9893ZM60.2598 30.1562H67.7402V37.6367H60.2598V30.1562ZM60.2598 45.8643H67.7402V53.3447H60.2598V45.8643ZM60.2598 61.5732H67.7402V69.0537H60.2598V61.5732ZM60.2598 77.2812H67.7402V84.7617H60.2598V77.2812ZM60.2598 92.9893H67.7402V100.47H60.2598V92.9893ZM45.7979 30.1562H53.2793V37.6367H45.7979V30.1562ZM45.7979 45.8643H53.2793V53.3447H45.7979V45.8643ZM45.7979 61.5732H53.2793V69.0537H45.7979V61.5732ZM45.7979 77.2812H53.2793V84.7617H45.7979V77.2812ZM45.7979 92.9893H53.2793V100.47H45.7979V92.9893ZM60.2598 107.202H67.7402V120.52H60.2598V107.202Z" fill="black"/>
</svg>
