<svg width="44" height="42" viewBox="0 0 44 42" fill="none" xmlns="http://www.w3.org/2000/svg">
<rect width="44" height="42" rx="7" fill="#46BE84"/>
<circle cx="22" cy="21" r="12" fill="white"/>
<path d="M26.463 20.051H22.4041V15.9922C22.4041 15.8127 22.3329 15.6407 22.206 15.5138C22.0791 15.3869 21.9071 15.3157 21.7277 15.3157C21.5482 15.3157 21.3762 15.3869 21.2493 15.5138C21.1224 15.6407 21.0512 15.8127 21.0512 15.9922V20.051H16.9923C16.8129 20.051 16.6408 20.1223 16.5139 20.2492C16.3871 20.376 16.3158 20.5481 16.3158 20.7275C16.3158 20.9069 16.3871 21.079 16.5139 21.2058C16.6408 21.3327 16.8129 21.404 16.9923 21.404H21.0512V25.4628C21.0512 25.6422 21.1224 25.8143 21.2493 25.9412C21.3762 26.068 21.5482 26.1393 21.7277 26.1393C21.9071 26.1393 22.0791 26.068 22.206 25.9412C22.3329 25.8143 22.4041 25.6422 22.4041 25.4628V21.404H26.463C26.6424 21.404 26.8145 21.3327 26.9414 21.2058C27.0682 21.079 27.1395 20.9069 27.1395 20.7275C27.1395 20.5481 27.0682 20.376 26.9414 20.2492C26.8145 20.1223 26.6424 20.051 26.463 20.051Z" fill="#4C79B0"/>
</svg>
