<svg width="32" height="32" viewBox="0 0 32 32" fill="none" xmlns="http://www.w3.org/2000/svg">
<path d="M15.5138 19.1714L4.77066 13.4346L1.99753 16.7821C5.88004 18.8717 9.48191 20.8455 13.3663 22.9357L15.5138 19.1714ZM23.9119 3.67321L23.9507 11.5702C23.9526 11.9826 23.6976 12.337 23.3344 12.4859L23.3351 12.4878L16.595 15.5356C16.3375 15.64 15.865 15.6559 15.6138 15.5483L9.40129 12.6163L9.40191 12.6144C9.04316 12.461 8.79066 12.0965 8.79254 11.6714L8.82941 3.87491C8.80129 3.39324 8.99566 2.92493 9.46129 2.73404L15.9444 0.0756055C16.2088 -0.0325643 16.4925 -0.0204747 16.7338 0.0851499L23.2063 2.46807C23.5938 2.6106 23.8388 2.96501 23.8563 3.3487C23.8932 3.45305 23.9119 3.56313 23.9119 3.67321ZM15.4475 14.0225V6.61161L9.75129 4.32732L9.64192 11.4932L15.4475 14.0225ZM16.7957 6.61288V14.0161L22.9644 11.4124L22.9294 4.19942L16.7957 6.61288ZM7.09254 11.777L5.50004 12.5807L16.2088 18.3099L26.9382 12.5699L25.6507 11.8884L25.6451 10.6387L27.2613 11.4882L30.2863 8.56884L25.6219 6.00013L25.6157 4.67791L31.7813 7.99618C31.8176 8.0159 31.8513 8.04136 31.8819 8.07317C32.0413 8.23797 32.0388 8.50267 31.8776 8.66492L28.1894 12.3516L31.7607 16.7032C31.9057 16.8801 31.8826 17.1448 31.7094 17.2931C31.6826 17.3153 31.6544 17.3344 31.6251 17.3484L28.4194 19.074V25.5426C28.4194 25.7163 28.3138 25.8665 28.1651 25.9295L16.5738 31.9195C16.3 32.0512 16.1957 32.022 15.9013 31.8266L4.28878 25.9161C4.2206 25.8815 4.16325 25.8282 4.12317 25.7622C4.08309 25.6962 4.06188 25.6202 4.06191 25.5426L4.05941 19.1059L0.793781 17.3484C0.764406 17.3344 0.736906 17.3153 0.710031 17.2931C0.53628 17.1448 0.513155 16.8801 0.658781 16.7032L4.13753 12.4655L0.10128 8.57139C-0.0480953 8.39832 -0.0299703 8.13426 0.140655 7.98155C0.165655 7.95991 0.191905 7.94082 0.21878 7.92619L7.12941 3.94618L7.12316 5.2913L1.58378 8.49949L4.87379 11.6135L7.09879 10.4917L7.09254 11.777ZM27.7094 13.4772L16.9857 19.2026L19.0744 22.9758L30.3569 16.7446L27.7094 13.4772Z" fill="white"/>
</svg>
