<svg width="44" height="42" viewBox="0 0 44 42" fill="none" xmlns="http://www.w3.org/2000/svg">
<rect width="44" height="42" rx="7" fill="#CE3B1B"/>
<path d="M28.7226 26.7908L23.4143 21.1206L28.7225 15.4504C28.9572 15.1997 29.089 14.8598 29.089 14.5054C29.089 14.1509 28.9572 13.811 28.7225 13.5603C28.4879 13.3097 28.1696 13.1689 27.8378 13.1689C27.506 13.1689 27.1877 13.3097 26.9531 13.5603L21.6448 19.2305L16.3365 13.5603C16.1019 13.3096 15.7836 13.1688 15.4518 13.1688C15.12 13.1688 14.8017 13.3096 14.5671 13.5603C14.3324 13.8109 14.2006 14.1508 14.2006 14.5053C14.2006 14.8598 14.3324 15.1997 14.5671 15.4503L19.8754 21.1206L14.5671 26.7908C14.3325 27.0414 14.2007 27.3814 14.2007 27.7358C14.2007 28.0903 14.3325 28.4302 14.5671 28.6808C14.8018 28.9315 15.12 29.0723 15.4518 29.0723C15.7837 29.0723 16.1019 28.9315 16.3366 28.6809L21.6448 23.0107L26.9531 28.6809C27.1878 28.9315 27.506 29.0723 27.8378 29.0723C28.1697 29.0723 28.4879 28.9315 28.7226 28.6809C28.9572 28.4303 29.089 28.0903 29.089 27.7359C29.089 27.3814 28.9572 27.0415 28.7226 26.7908Z" fill="#F5F5F5"/>
</svg>
