<svg width="129" height="75" viewBox="0 0 129 75" fill="none" xmlns="http://www.w3.org/2000/svg">
<g filter="url(#filter0_d_99_3956)">
<path d="M106.342 21.2227H42.1913C34.0977 21.2227 27.5329 27.868 27.5329 36.0609C27.5329 44.2539 34.0977 50.8992 42.1913 50.8992H106.342C114.435 50.8992 121 44.2539 121 36.0609C121 27.868 114.435 21.2227 106.342 21.2227Z" fill="url(#paint0_linear_99_3956)"/>
<path d="M8.40004 35.7077C8.40004 51.3455 20.9452 64.0153 36.4118 64.0153C51.8784 64.0153 64.4236 51.3455 64.4236 35.7077C64.4236 20.0699 51.8784 7.4 36.4118 7.4C20.9452 7.4 8.40004 20.0699 8.40004 35.7077Z" fill="url(#paint1_linear_99_3956)" stroke="#0EC77C" stroke-width="0.800003"/>
<path d="M79.2248 38.8417C79.2887 38.8417 79.3525 38.855 79.4164 38.8816C79.4802 38.9029 79.5414 38.9428 79.6 39.0014L80.6694 40.1268C80.2012 40.7387 79.6133 41.2016 78.9056 41.5156C78.2032 41.8242 77.3705 41.9785 76.4074 41.9785C75.5242 41.9785 74.7314 41.8295 74.029 41.5316C73.332 41.2283 72.7387 40.8132 72.2492 40.2864C71.765 39.7543 71.3925 39.1264 71.1318 38.4027C70.8711 37.6737 70.7407 36.8835 70.7407 36.0322C70.7407 35.1648 70.8897 34.3693 71.1877 33.6456C71.4856 32.9166 71.9007 32.2887 72.4328 31.7619C72.9702 31.2351 73.6113 30.8254 74.3562 30.5327C75.1012 30.2401 75.9232 30.0938 76.8225 30.0938C77.2588 30.0938 77.6685 30.1337 78.0516 30.2135C78.44 30.288 78.8018 30.3944 79.137 30.5327C79.4723 30.6658 79.7809 30.8281 80.0629 31.0196C80.3449 31.2059 80.595 31.4134 80.8131 31.6422L79.9032 32.8634C79.8447 32.9379 79.7755 33.0071 79.6957 33.0709C79.6159 33.1295 79.5042 33.1587 79.3605 33.1587C79.2647 33.1587 79.1743 33.1374 79.0891 33.0949C79.004 33.0523 78.9136 33.0018 78.8178 32.9432C78.722 32.8794 78.6156 32.8129 78.4985 32.7437C78.3868 32.6692 78.2511 32.6027 78.0915 32.5441C77.9372 32.4803 77.7536 32.4271 77.5408 32.3845C77.3333 32.3419 77.0885 32.3207 76.8065 32.3207C76.317 32.3207 75.87 32.4084 75.4656 32.584C75.0613 32.7543 74.7127 33.0018 74.4201 33.3263C74.1328 33.6456 73.9066 34.0341 73.7417 34.4917C73.5821 34.9493 73.5022 35.4628 73.5022 36.0322C73.5022 36.6281 73.5821 37.1576 73.7417 37.6205C73.9066 38.0835 74.1274 38.4746 74.4041 38.7938C74.6861 39.1078 75.0134 39.3472 75.3858 39.5122C75.7583 39.6771 76.1574 39.7596 76.583 39.7596C76.8278 39.7596 77.0513 39.749 77.2535 39.7277C77.4556 39.7011 77.6419 39.6585 77.8121 39.6C77.9877 39.5415 78.1527 39.467 78.307 39.3765C78.4666 39.2807 78.6262 39.1636 78.7859 39.0253C78.8497 38.9721 78.9189 38.9295 78.9934 38.8976C79.0679 38.8603 79.145 38.8417 79.2248 38.8417Z" fill="white"/>
<path d="M85.398 37.5487V41.0527C85.398 41.4935 85.0406 41.8508 84.5999 41.8508H82.7003V30.2215H86.4834C87.3241 30.2215 88.0398 30.3093 88.6304 30.4849C89.2263 30.6551 89.7105 30.8946 90.083 31.2032C90.4608 31.5118 90.7348 31.8763 90.9051 32.2967C91.0753 32.7171 91.1605 33.1747 91.1605 33.6696C91.1605 34.0474 91.1099 34.4039 91.0088 34.7391C90.9077 35.0743 90.7561 35.3856 90.5539 35.673C90.357 35.955 90.1123 36.2078 89.8196 36.4312C89.5323 36.6547 89.1997 36.8383 88.822 36.982C89.0029 37.0724 89.1705 37.1842 89.3248 37.3172C89.4844 37.4502 89.6227 37.6125 89.7398 37.8041L92.214 41.8508H89.7717C89.3195 41.8508 88.9949 41.6806 88.798 41.34L86.8665 37.9637C86.7814 37.8147 86.6803 37.7083 86.5633 37.6445C86.4515 37.5806 86.2919 37.5487 86.0844 37.5487H85.398ZM85.398 35.6889H86.4834C86.8506 35.6889 87.1618 35.6437 87.4172 35.5532C87.678 35.4575 87.8908 35.3271 88.0557 35.1621C88.2207 34.9972 88.3404 34.8056 88.4149 34.5875C88.4894 34.364 88.5266 34.1245 88.5266 33.8691C88.5266 33.3583 88.359 32.9592 88.0238 32.6718C87.6939 32.3845 87.1805 32.2408 86.4834 32.2408H85.398V35.6889Z" fill="white"/>
<path d="M100.06 36.535C100.167 36.7372 100.268 36.9474 100.364 37.1656C100.465 37.3837 100.56 37.6072 100.651 37.836C100.741 37.6019 100.837 37.3757 100.938 37.1576C101.039 36.9341 101.143 36.7186 101.249 36.5111L104.234 30.6365C104.288 30.5354 104.341 30.4582 104.394 30.405C104.453 30.3465 104.516 30.3039 104.586 30.2773C104.655 30.2507 104.732 30.2348 104.817 30.2294C104.908 30.2241 105.011 30.2215 105.128 30.2215H107.188V41.8508H105.607C105.166 41.8508 104.809 41.4935 104.809 41.0527V35.1621C104.809 34.8376 104.825 34.4864 104.857 34.1086L101.776 40.0869C101.68 40.2731 101.55 40.4141 101.385 40.5099C101.225 40.6057 101.042 40.6536 100.834 40.6536H100.467C100.26 40.6536 100.074 40.6057 99.9086 40.5099C99.749 40.4141 99.6213 40.2731 99.5255 40.0869L96.4287 34.1006C96.45 34.2868 96.466 34.4731 96.4766 34.6593C96.4873 34.8402 96.4926 35.0078 96.4926 35.1621V41.0527C96.4926 41.4935 96.1353 41.8508 95.6945 41.8508H94.1142V30.2215H96.1733C96.2904 30.2215 96.3915 30.2241 96.4766 30.2294C96.5671 30.2348 96.6469 30.2507 96.7161 30.2773C96.7852 30.3039 96.8464 30.3465 96.8996 30.405C96.9582 30.4582 97.014 30.5354 97.0672 30.6365L100.06 36.535Z" fill="white"/>
<path d="M40.9762 46.2157L36.9342 46.2473C36.1763 46.2473 35.45 45.8368 35.0711 45.1736L27.0818 31.4688H26.9555C26.9871 32.1004 27.0187 32.7003 27.0503 33.3319C27.0818 33.9635 27.1134 34.595 27.145 35.195C27.1766 35.8266 27.2081 36.4265 27.2397 37.0581L27.2713 45.3947C27.2713 45.8999 26.8924 46.2789 26.3871 46.2789H23.5767L23.4819 26.669L27.745 26.6374C28.345 26.6374 28.9134 26.9532 29.1976 27.4584L37.2815 41.258H37.3763C37.3447 40.658 37.3447 40.058 37.3131 39.458C37.2815 38.858 37.25 38.2581 37.2184 37.6581C37.1868 37.0581 37.1552 36.4581 37.1552 35.8581L37.1237 27.3952C37.1237 26.9532 37.5026 26.5742 37.9447 26.5742H40.8499L40.9762 46.2157Z" fill="#545454"/>
<path d="M51.9642 34.6467L55.6904 27.2258C55.8799 26.8153 56.322 26.5627 56.7641 26.5627L60.4903 26.5311L54.0483 38.5308L54.0799 45.2884C54.0799 45.7621 53.701 46.1726 53.1957 46.1726H49.9432L49.9116 38.6887L43.3434 26.5943L47.1012 26.5627C47.5433 26.5627 47.9854 26.8153 48.1748 27.2258L51.9642 34.6467Z" fill="#545454"/>
<path d="M37.7985 11.2391C44.2161 11.7853 49.6096 14.4138 54.0132 19.1587C53.2622 19.1587 52.6136 19.1587 51.8626 19.1587C51.6236 19.1587 51.4871 19.0563 51.3847 18.9539C48.5514 16.7009 45.3426 15.2672 41.7925 14.6527C37.1158 13.8335 32.644 14.5503 28.377 16.7009C26.2264 17.7932 24.3148 19.1928 22.6763 20.9337C22.5397 21.0703 22.4373 21.2751 22.3008 20.9337C21.4815 19.1245 19.8771 18.4077 19.2627 18.1687C19.1603 18.1346 19.1261 17.9639 19.1944 17.8956C19.7406 17.3836 20.3209 16.8716 20.9012 16.3937C23.6321 14.2772 26.6702 12.8094 29.9814 11.9218C31.381 11.5464 32.7805 11.3415 34.2143 11.2391C34.3167 11.2391 34.4532 11.2733 34.5215 11.1709C34.5556 11.1709 34.5898 11.1709 34.6239 11.1367C34.9311 11.205 35.2042 11.205 35.5114 11.1367C35.7845 11.1367 36.0235 11.1367 36.2966 11.1709C36.4672 11.205 36.6379 11.205 36.8427 11.1709C36.8769 11.1709 36.9451 11.1709 37.0134 11.1709C37.15 11.2391 37.2865 11.1709 37.423 11.205C37.5596 11.2391 37.662 11.205 37.7985 11.2391Z" fill="url(#paint2_linear_99_3956)"/>
<path d="M54.4572 51.6279C46.5717 61.2542 30.2888 63.6437 19.3653 53.5054C19.1946 53.3347 19.2629 53.0616 19.4677 52.9592C20.7307 52.4471 21.6524 51.5937 22.2669 50.3648C22.3351 50.1942 22.5741 50.1942 22.6765 50.2966C23.2568 50.911 23.8713 51.4572 24.5198 52.0034C26.807 53.915 29.3672 55.2122 32.2004 56.0656C34.7265 56.8165 37.3209 57.0896 39.9493 56.8165C44.3529 56.4069 48.2785 54.8025 51.6921 51.9692C51.9994 51.6961 52.3066 51.5596 52.7504 51.5596C53.3307 51.662 53.8768 51.6279 54.4572 51.6279Z" fill="url(#paint3_linear_99_3956)"/>
<path d="M13.186 44.4986C11.0013 38.5589 11.0013 32.6875 13.2202 26.7138C13.2885 26.5772 13.4591 26.5431 13.5615 26.6455C13.7664 26.8844 13.9712 27.0892 14.176 27.2941C15.1659 28.1133 16.3266 28.523 17.6579 28.4547C17.931 28.4547 18.0334 28.4888 17.931 28.796C17.0093 31.3904 16.6679 34.0871 16.8045 36.8521C16.9069 38.7637 17.2482 40.6412 17.8968 42.4504C17.9992 42.7577 17.9651 42.8259 17.6237 42.8259C16.0193 42.8259 14.688 43.4062 13.5615 44.601C13.4591 44.7034 13.2543 44.6693 13.186 44.4986Z" fill="url(#paint4_linear_99_3956)"/>
<path d="M19.8089 48.2628C19.8089 49.4576 18.819 50.4475 17.6242 50.4134C16.4294 50.4134 15.4736 49.4234 15.4736 48.2287C15.4736 47.0681 16.4636 46.0781 17.6242 46.0781C18.819 46.0781 19.8089 47.0681 19.8089 48.2628Z" fill="url(#paint5_linear_99_3956)"/>
<path d="M17.6575 21.2341C18.8522 21.2341 19.808 22.2241 19.808 23.3847C19.7739 24.5453 18.8181 25.5011 17.6575 25.5011C16.4627 25.5011 15.4728 24.5112 15.5069 23.3506C15.5069 22.1899 16.4627 21.2341 17.6575 21.2341Z" fill="url(#paint6_linear_99_3956)"/>
</g>
<defs>
<filter id="filter0_d_99_3956" x="2.86102e-05" y="0.599974" width="129" height="73.4153" filterUnits="userSpaceOnUse" color-interpolation-filters="sRGB">
<feFlood flood-opacity="0" result="BackgroundImageFix"/>
<feColorMatrix in="SourceAlpha" type="matrix" values="0 0 0 0 0 0 0 0 0 0 0 0 0 0 0 0 0 0 127 0" result="hardAlpha"/>
<feOffset dy="1.60001"/>
<feGaussianBlur stdDeviation="4.00002"/>
<feComposite in2="hardAlpha" operator="out"/>
<feColorMatrix type="matrix" values="0 0 0 0 0.270588 0 0 0 0 0.776471 0 0 0 0 0.52549 0 0 0 0.16 0"/>
<feBlend mode="normal" in2="BackgroundImageFix" result="effect1_dropShadow_99_3956"/>
<feBlend mode="normal" in="SourceGraphic" in2="effect1_dropShadow_99_3956" result="shape"/>
</filter>
<linearGradient id="paint0_linear_99_3956" x1="186.681" y1="-42.9783" x2="-88.3294" y2="129.131" gradientUnits="userSpaceOnUse">
<stop stop-color="#15FF5F"/>
<stop offset="0.0001" stop-color="#4C79B0"/>
<stop offset="1"/>
</linearGradient>
<linearGradient id="paint1_linear_99_3956" x1="36.4118" y1="7" x2="36.4118" y2="64.4153" gradientUnits="userSpaceOnUse">
<stop stop-color="#FAFAFA"/>
<stop offset="1" stop-color="white"/>
</linearGradient>
<linearGradient id="paint2_linear_99_3956" x1="-5.33373" y1="-10.4619" x2="91.0185" y2="56.3773" gradientUnits="userSpaceOnUse">
<stop stop-color="#15FF5F"/>
<stop offset="0.1275" stop-color="#12E86B"/>
<stop offset="1" stop-color="#0051BA"/>
</linearGradient>
<linearGradient id="paint3_linear_99_3956" x1="-21.2046" y1="12.4231" x2="75.1476" y2="79.2622" gradientUnits="userSpaceOnUse">
<stop stop-color="#15FF5F"/>
<stop offset="0.1275" stop-color="#12E86B"/>
<stop offset="1" stop-color="#0051BA"/>
</linearGradient>
<linearGradient id="paint4_linear_99_3956" x1="-20.5428" y1="11.4733" x2="75.8094" y2="78.3124" gradientUnits="userSpaceOnUse">
<stop stop-color="#15FF5F"/>
<stop offset="0.1275" stop-color="#12E86B"/>
<stop offset="1" stop-color="#0051BA"/>
</linearGradient>
<linearGradient id="paint5_linear_99_3956" x1="-25.3659" y1="18.4019" x2="70.9863" y2="85.241" gradientUnits="userSpaceOnUse">
<stop stop-color="#15FF5F"/>
<stop offset="0.1275" stop-color="#12E86B"/>
<stop offset="1" stop-color="#0051BA"/>
</linearGradient>
<linearGradient id="paint6_linear_99_3956" x1="-13.7225" y1="1.62302" x2="82.6298" y2="68.4621" gradientUnits="userSpaceOnUse">
<stop stop-color="#15FF5F"/>
<stop offset="0.1275" stop-color="#12E86B"/>
<stop offset="1" stop-color="#0051BA"/>
</linearGradient>
</defs>
</svg>
