<svg width="32" height="32" viewBox="0 0 32 32" fill="none" xmlns="http://www.w3.org/2000/svg">
<path fill-rule="evenodd" clip-rule="evenodd" d="M12.8 19.2C13.6837 19.2 14.4 19.9163 14.4 20.8V30.4C14.4 31.2837 13.6837 32 12.8 32H1.6C0.716344 32 0 31.2837 0 30.4V20.8C0 19.9163 0.716344 19.2 1.6 19.2H12.8ZM30.4 11.2C31.2837 11.2 32 11.9163 32 12.8V30.4C32 31.2837 31.2837 32 30.4 32H19.2C18.3163 32 17.6 31.2837 17.6 30.4V12.8C17.6 11.9163 18.3163 11.2 19.2 11.2H30.4ZM12.8 0C13.6837 0 14.4 0.716344 14.4 1.6V14.4C14.4 15.2837 13.6837 16 12.8 16H1.6C0.716344 16 0 15.2837 0 14.4V1.6C0 0.716344 0.716344 0 1.6 0H12.8ZM30.4 0C31.2837 0 32 0.716344 32 1.6V6.4C32 7.28366 31.2837 8 30.4 8H19.2C18.3163 8 17.6 7.28366 17.6 6.4V1.6C17.6 0.716344 18.3163 0 19.2 0H30.4Z" fill="white"/>
</svg>
