<svg width="37" height="38" viewBox="0 0 37 38" fill="none" xmlns="http://www.w3.org/2000/svg">
<path fill-rule="evenodd" clip-rule="evenodd" d="M16.721 34.7102C16.435 34.7103 16.1555 34.7934 15.9177 34.9491C15.68 35.1048 15.4947 35.326 15.3854 35.5848C15.276 35.8436 15.2475 36.1283 15.3034 36.403C15.3593 36.6777 15.4971 36.93 15.6994 37.128C15.9017 37.3259 16.1594 37.4607 16.4399 37.5153C16.7205 37.5698 17.0112 37.5416 17.2754 37.4344C17.5396 37.3271 17.7653 37.1455 17.9241 36.9125C18.0829 36.6796 18.1676 36.4058 18.1675 36.1257C18.1669 35.7503 18.0143 35.3904 17.7432 35.125C17.472 34.8596 17.1044 34.7105 16.721 34.7102ZM16.721 36.6077C16.6238 36.6076 16.5288 36.5793 16.448 36.5263C16.3672 36.4734 16.3042 36.3982 16.267 36.3102C16.2298 36.2222 16.2201 36.1254 16.2391 36.032C16.2581 35.9386 16.3049 35.8528 16.3737 35.7855C16.4424 35.7182 16.53 35.6723 16.6254 35.6537C16.7208 35.6351 16.8196 35.6446 16.9094 35.681C16.9993 35.7174 17.0761 35.7791 17.1302 35.8583C17.1842 35.9374 17.2131 36.0305 17.2132 36.1257C17.2131 36.2535 17.1612 36.376 17.0689 36.4664C16.9766 36.5567 16.8515 36.6075 16.721 36.6077ZM14.136 1.03016C14.136 0.906147 14.1864 0.787216 14.2759 0.699529C14.3654 0.611841 14.4869 0.562578 14.6135 0.562578H17.2833C17.4069 0.566894 17.524 0.618014 17.6099 0.705175C17.6958 0.792336 17.7437 0.908734 17.7437 1.02986C17.7437 1.15098 17.6958 1.26738 17.6099 1.35454C17.524 1.4417 17.4069 1.49283 17.2833 1.49714H14.6132C14.4866 1.49714 14.3653 1.44793 14.2757 1.36032C14.1862 1.27271 14.1358 1.15388 14.1357 1.02993L14.136 1.03016ZM18.3502 1.03016C18.3502 0.937729 18.3782 0.847375 18.4306 0.770508C18.483 0.693641 18.5575 0.63371 18.6447 0.598285C18.7319 0.562861 18.8278 0.553532 18.9204 0.571478C19.013 0.589423 19.098 0.633838 19.1649 0.699111C19.2317 0.764384 19.2773 0.847588 19.2958 0.938211C19.3144 1.02883 19.3051 1.12281 19.2691 1.20827C19.2332 1.29373 19.1722 1.36684 19.0938 1.41836C19.0155 1.46988 18.9233 1.4975 18.8289 1.49773H18.8274C18.7008 1.49773 18.5794 1.44852 18.4899 1.36092C18.4004 1.27331 18.35 1.15447 18.3499 1.03053L18.3502 1.03016ZM7.49883 0C7.14953 0.00033407 6.81463 0.136377 6.56764 0.37827C6.32066 0.620162 6.18176 0.948141 6.18144 1.29022V16.0894H6.95044V2.59766C6.95062 2.45528 7.00846 2.31878 7.11126 2.2181C7.21406 2.11742 7.35345 2.06079 7.49883 2.06061H25.9425C26.0879 2.06084 26.2273 2.11749 26.3302 2.21814C26.433 2.31879 26.491 2.45525 26.4913 2.59766V5.73355H27.2603V1.29022C27.2598 0.948118 27.1208 0.620175 26.8738 0.378308C26.6267 0.13644 26.2918 0.000392664 25.9425 0L7.49883 0ZM18.4125 10.4072L19.948 12.4428C19.79 12.7541 19.6541 13.0757 19.5414 13.4053L16.9852 13.7812C16.8722 13.7977 16.7691 13.8534 16.6945 13.9381C16.6199 14.0229 16.5789 14.1311 16.5789 14.2429V17.3906C16.5789 17.5025 16.6199 17.6108 16.6944 17.6957C16.769 17.7805 16.8722 17.8364 16.9852 17.8531L19.5447 18.2292C19.6574 18.5575 19.7931 18.8778 19.951 19.1877L18.4118 21.2266C18.344 21.3166 18.3115 21.4275 18.3201 21.5391C18.3287 21.6506 18.3778 21.7555 18.4586 21.8346L20.7308 24.0611C20.8119 24.14 20.9191 24.1879 21.033 24.1962C21.147 24.2045 21.2602 24.1726 21.3523 24.1063L23.4364 22.5979C23.7522 22.7512 24.0782 22.8836 24.4121 22.9943L24.797 25.5038C24.8143 25.6144 24.8714 25.7153 24.958 25.7883C25.0446 25.8613 25.155 25.9016 25.2692 25.902H25.5382V33.3181H7.90474V30.7799C7.97969 30.7487 8.04527 30.6993 8.09524 30.6364C8.14521 30.5734 8.1779 30.499 8.19023 30.4202L8.45397 28.6991C8.64611 28.6328 8.83455 28.5567 9.0185 28.471L10.4474 29.5038C10.5391 29.5704 10.6522 29.6025 10.766 29.5942C10.8798 29.5859 10.9868 29.5378 11.0675 29.4587L12.6978 27.8625C12.7786 27.7833 12.8278 27.6783 12.8364 27.5667C12.845 27.455 12.8125 27.344 12.7447 27.2539L11.6894 25.856C11.7779 25.6755 11.8563 25.4904 11.9244 25.3016L13.6785 25.0442C13.7916 25.0274 13.8947 24.9716 13.9693 24.8867C14.0438 24.8018 14.0848 24.6936 14.0847 24.5816V22.3243C14.0849 22.2124 14.044 22.1042 13.9694 22.0194C13.8948 21.9346 13.7916 21.879 13.6785 21.8625L11.927 21.6046C11.8592 21.4146 11.7805 21.2284 11.6914 21.047L12.7445 19.6525C12.8121 19.5624 12.8446 19.4516 12.8362 19.3401C12.8277 19.2286 12.7788 19.1237 12.6983 19.0445L11.0688 17.4482C10.9879 17.3691 10.8807 17.321 10.7667 17.3127C10.6526 17.3044 10.5393 17.3364 10.4474 17.403L9.02411 18.4324C8.83826 18.3449 8.64768 18.2674 8.45321 18.2002L8.19023 16.4872C8.17822 16.4083 8.14564 16.3337 8.09563 16.2707C8.04563 16.2077 7.97988 16.1584 7.90474 16.1275V2.9948H25.5376V5.73347H25.2687C25.1546 5.73358 25.0443 5.77369 24.9578 5.84654C24.8713 5.91939 24.8143 6.02017 24.7971 6.13062L24.4138 8.6309C24.0764 8.74164 23.7472 8.87509 23.4286 9.03027L21.352 7.52845C21.2602 7.46162 21.147 7.42934 21.0329 7.43752C20.9188 7.44569 20.8115 7.49377 20.7306 7.57298L18.4584 9.79955C18.3775 9.87853 18.3283 9.98339 18.3198 10.0949C18.3113 10.2065 18.3441 10.3173 18.4122 10.4072L18.4125 10.4072ZM4.29709 27.5129C4.59625 27.673 4.91219 27.801 5.23941 27.8946C5.32668 27.9198 5.4048 27.9689 5.4646 28.036C5.5244 28.1032 5.56341 28.1857 5.57704 28.2738L5.8235 29.8832H7.30755L7.554 28.2738C7.56757 28.1856 7.6067 28.103 7.66675 28.0359C7.7268 27.9688 7.80524 27.92 7.89277 27.8953C8.21995 27.8012 8.53586 27.6729 8.8351 27.5128C8.91497 27.4701 9.00563 27.4505 9.09646 27.4564C9.18728 27.4624 9.2745 27.4935 9.34787 27.5463L10.6837 28.5136L11.7333 27.4864L10.7464 26.179C10.6923 26.107 10.6604 26.0215 10.6543 25.9323C10.6483 25.8432 10.6684 25.7543 10.7122 25.676C10.8766 25.383 11.0078 25.0733 11.1035 24.7525C11.129 24.6668 11.179 24.5901 11.2476 24.5315C11.3162 24.4728 11.4006 24.4346 11.4907 24.4215L13.131 24.18V22.727L11.4932 22.4864C11.403 22.4731 11.3186 22.4348 11.2499 22.376C11.1813 22.3172 11.1312 22.2404 11.1057 22.1546C11.0101 21.8323 10.8786 21.5211 10.7137 21.2269C10.6701 21.1486 10.6502 21.0597 10.6565 20.9707C10.6628 20.8817 10.6949 20.7963 10.749 20.7246L11.7333 19.4204L10.6837 18.3933L9.35234 19.3562C9.27913 19.4093 9.19193 19.4407 9.10106 19.4468C9.01019 19.4529 8.91945 19.4333 8.83957 19.3905C8.53906 19.2286 8.2214 19.0994 7.89224 19.0051C7.80465 18.9803 7.72618 18.9313 7.66614 18.8641C7.60609 18.7969 7.56699 18.7143 7.55347 18.6259L7.30777 17.0242H5.82441L5.57871 18.6259C5.5651 18.7142 5.52597 18.7968 5.46594 18.864C5.4059 18.9312 5.32748 18.9802 5.23994 19.0051C4.91056 19.0993 4.59268 19.2285 4.29201 19.3905C4.21198 19.4333 4.12113 19.4528 4.03014 19.4468C3.93916 19.4407 3.85184 19.4093 3.77848 19.3562L2.44737 18.3935L1.39886 19.4206L2.38325 20.7248C2.43722 20.7966 2.46916 20.882 2.47534 20.9709C2.48151 21.0599 2.46166 21.1487 2.41811 21.227C2.2533 21.5213 2.12186 21.8324 2.02615 22.1547C2.00077 22.2404 1.95078 22.3171 1.88213 22.3757C1.81348 22.4344 1.72907 22.4724 1.63896 22.4854L0 22.7271V24.18L1.641 24.4213C1.7311 24.4343 1.81548 24.4724 1.88403 24.5311C1.95258 24.5898 2.0024 24.6666 2.02751 24.7523C2.12378 25.0731 2.25523 25.3827 2.41955 25.6758C2.46359 25.754 2.48378 25.8428 2.47772 25.9319C2.47166 26.0209 2.43961 26.1064 2.38538 26.1781L1.39886 27.4862L2.44737 28.5134L3.78432 27.5461C3.85756 27.4931 3.9448 27.4618 4.03569 27.4558C4.12658 27.4499 4.2173 27.4696 4.29709 27.5127V27.5129ZM27.2603 36.71C27.2598 37.0521 27.1207 37.38 26.8737 37.6218C26.6267 37.8636 26.2918 37.9996 25.9425 38H7.49883C7.14953 37.9997 6.81463 37.8636 6.56764 37.6217C6.32066 37.3798 6.18176 37.0519 6.18144 36.7098V30.8176H6.95044V33.715C6.95062 33.8574 7.00845 33.9939 7.11126 34.0946C7.21406 34.1952 7.35344 34.2519 7.49883 34.2521H25.9425C26.088 34.2519 26.2275 34.1953 26.3304 34.0947C26.4333 33.994 26.4913 33.8574 26.4916 33.715V25.9018H27.2607V36.7098L27.2603 36.71ZM32.8558 19.508L34.3277 21.4584L32.6366 23.1157L30.6423 21.6722C30.569 21.6193 30.4817 21.588 30.3907 21.5821C30.2998 21.5762 30.209 21.5959 30.1292 21.6388C29.7005 21.8691 29.2476 22.053 28.7783 22.1873C28.6908 22.2121 28.6123 22.261 28.5522 22.3282C28.4922 22.3954 28.4531 22.4781 28.4397 22.5664L28.0724 24.9672H25.6791L25.3107 22.5657C25.2977 22.4775 25.2588 22.3948 25.1989 22.3277C25.1391 22.2605 25.0606 22.2117 24.9731 22.1872C24.5038 22.0526 24.0508 21.8687 23.6219 21.6387C23.5421 21.5958 23.4514 21.5761 23.3605 21.5821C23.2697 21.588 23.1824 21.6192 23.1091 21.6721L21.1149 23.1155L19.4238 21.4583L20.8955 19.5076C20.9497 19.4357 20.9818 19.3502 20.9879 19.2611C20.994 19.1719 20.9739 19.083 20.93 19.0047C20.6939 18.5842 20.5056 18.1397 20.3684 17.6791C20.3426 17.5937 20.2925 17.5172 20.224 17.4586C20.1554 17.4 20.0712 17.3617 19.9813 17.3482L17.5328 16.9887V14.6456L19.9779 14.2859C20.0681 14.2728 20.1526 14.2345 20.2212 14.1757C20.2899 14.1169 20.3398 14.04 20.3651 13.9542C20.5024 13.4924 20.691 13.0467 20.9273 12.6251C20.9709 12.5467 20.9908 12.4578 20.9846 12.3688C20.9784 12.2798 20.9465 12.1943 20.8925 12.1224L19.4238 10.1754L21.1157 8.51853L23.102 9.95607C23.1753 10.009 23.2625 10.0402 23.3534 10.0462C23.4443 10.0521 23.535 10.0324 23.6148 9.98955C24.0459 9.757 24.502 9.57182 24.9746 9.43736C25.0621 9.41229 25.1404 9.3633 25.2004 9.29615C25.2604 9.22899 25.2996 9.14646 25.3134 9.05825L25.6799 6.66744H28.0724L28.439 9.05825C28.4527 9.14636 28.4918 9.22882 28.5516 9.29596C28.6115 9.3631 28.6896 9.41215 28.7769 9.43736C29.2496 9.57171 29.7057 9.757 30.1367 9.98984C30.2167 10.0328 30.3076 10.0525 30.3986 10.0465C30.4897 10.0406 30.5771 10.0093 30.6506 9.95637L32.6369 8.51883L34.3285 10.1754L32.8591 12.1221C32.8049 12.1939 32.7729 12.2794 32.7669 12.3685C32.7609 12.4576 32.781 12.5465 32.825 12.6247C33.0613 13.0466 33.2499 13.4925 33.3873 13.9545C33.4126 14.0402 33.4626 14.117 33.5312 14.1757C33.5999 14.2344 33.6843 14.2725 33.7744 14.2856L36.2187 14.6452V16.9887L33.7714 17.3484C33.6814 17.3618 33.5971 17.4001 33.5285 17.4587C33.4599 17.5173 33.4097 17.5938 33.3839 17.6794C33.2461 18.14 33.0577 18.5847 32.8219 19.0056C32.7779 19.0837 32.7577 19.1726 32.7637 19.2616C32.7698 19.3506 32.8019 19.4361 32.8561 19.5078L32.8558 19.508ZM26.8755 11.5955C27.728 11.5955 28.5614 11.8431 29.2703 12.3069C29.9792 12.7707 30.5317 13.43 30.858 14.2013C31.1842 14.9726 31.2696 15.8214 31.1034 16.6403C30.9371 17.4591 30.5266 18.2113 29.9239 18.8018C29.3211 19.3922 28.5531 19.7943 27.7169 19.9573C26.8808 20.1202 26.0141 20.0367 25.2264 19.7173C24.4387 19.3979 23.7655 18.857 23.2917 18.1629C22.8179 17.4687 22.565 16.6526 22.5649 15.8177C22.5661 14.6984 23.0206 13.6253 23.8287 12.8337C24.6368 12.0422 25.7325 11.5969 26.8755 11.5955ZM26.8755 19.1038C26.2117 19.1038 25.5627 18.911 25.0108 18.5498C24.4588 18.1886 24.0286 17.6753 23.7746 17.0746C23.5206 16.474 23.4542 15.8131 23.5838 15.1755C23.7133 14.5379 24.0331 13.9522 24.5025 13.4926C24.972 13.0329 25.5701 12.7199 26.2212 12.5932C26.8723 12.4665 27.5472 12.5317 28.1604 12.7805C28.7737 13.0294 29.2978 13.4508 29.6665 13.9914C30.0352 14.5321 30.2319 15.1676 30.2318 15.8177C30.2306 16.689 29.8767 17.5243 29.2476 18.1403C28.6184 18.7563 27.7655 19.1029 26.8758 19.1039L26.8755 19.1038ZM9.79235 23.4531C9.7924 22.8282 9.60323 22.2174 9.24877 21.6978C8.89431 21.1782 8.39048 20.7731 7.80099 20.534C7.21149 20.2948 6.56281 20.2321 5.93697 20.354C5.31113 20.4758 4.73623 20.7767 4.28498 21.2185C3.83373 21.6603 3.52639 22.2232 3.40183 22.8361C3.27726 23.449 3.34106 24.0842 3.58517 24.6616C3.82927 25.239 4.24271 25.7325 4.77321 26.0797C5.3037 26.427 5.92743 26.6124 6.56552 26.6125C7.4209 26.6115 8.24097 26.2784 8.84588 25.6861C9.4508 25.0938 9.79117 24.2908 9.79235 23.4531ZM4.29352 23.4531C4.2936 23.8932 4.42693 24.3234 4.67666 24.6893C4.92639 25.0552 5.2813 25.3403 5.69651 25.5087C6.11172 25.677 6.56858 25.721 7.00932 25.6351C7.45006 25.5491 7.85488 25.3372 8.17259 25.0259C8.49031 24.7147 8.70664 24.3181 8.79424 23.8865C8.88184 23.4548 8.83677 23.0074 8.66472 22.6009C8.49268 22.1943 8.20139 21.8468 7.8277 21.6024C7.454 21.358 7.01468 21.2275 6.5653 21.2276C5.96286 21.2283 5.38529 21.463 4.95937 21.8802C4.53346 22.2975 4.29398 22.8631 4.29352 23.4531Z" fill="white"/>
</svg>
