<svg width="38" height="38" viewBox="0 0 38 38" fill="none" xmlns="http://www.w3.org/2000/svg">
<path d="M2.5332 16.2422V27.4847H8.44431H14.3554L14.7776 28.3332L15.1999 29.1816H18.9999H22.7999L23.2221 28.3332L23.6443 27.4847H29.5554H35.4665V16.2422V4.99982H18.9999H2.5332V16.2422ZM32.511 16.2422V24.515H18.9999H5.48876V16.2422V7.96952H18.9999H32.511V16.2422Z" fill="white"/>
<path d="M17.4802 9.39067C17.2057 9.45431 17.1002 9.68764 17.1002 10.1967C17.1002 10.8119 16.9735 10.9604 16.1713 11.427C15.3057 11.9149 15.2213 11.9149 14.7146 11.6179C14.0602 11.2149 13.7435 11.427 12.9835 12.721C12.1602 14.1634 12.1391 14.4816 12.8146 14.821C13.3424 15.0967 13.4057 15.2664 13.4269 16.2422C13.448 17.2392 13.3846 17.3452 12.8357 17.6422C12.5191 17.8119 12.2446 18.0028 12.2446 18.0664C12.2446 18.4058 13.3635 20.4846 13.7224 20.8028C14.1235 21.1846 14.208 21.1846 14.7146 20.8664C15.2213 20.5695 15.3057 20.5695 16.1713 21.0573C16.9735 21.5028 17.1002 21.6725 17.1002 22.2876C17.1002 23.0725 17.4169 23.2422 19.0002 23.2422C20.5835 23.2422 20.9002 23.0725 20.9002 22.2876C20.9002 21.6725 21.0269 21.5028 21.8291 21.0573C22.6946 20.5695 22.7791 20.5695 23.2857 20.8664C23.7924 21.1846 23.8769 21.1846 24.278 20.8028C24.6369 20.4846 25.7557 18.4058 25.7557 18.0664C25.7557 18.0028 25.5024 17.8119 25.1857 17.6422C24.6791 17.3876 24.5946 17.2179 24.5735 16.2422C24.5524 15.2452 24.6157 15.1392 25.1646 14.8422C25.4813 14.6725 25.7557 14.4816 25.7557 14.4179C25.7557 14.0786 24.6369 11.9998 24.2569 11.6604C23.8557 11.2998 23.7713 11.2998 23.2646 11.5967C22.7369 11.8937 22.6313 11.8725 21.808 11.4058C21.0269 10.9816 20.9002 10.8119 20.9002 10.1967C20.9002 9.66643 20.7946 9.47552 20.4357 9.36946C19.8869 9.24219 18.0291 9.24219 17.4802 9.39067ZM20.6046 14.5664C22.2091 16.0937 20.7313 18.9149 18.5357 18.4907C16.4246 18.0876 16.0869 14.9695 18.0502 14.0998C18.7257 13.8028 20.0557 14.0361 20.6046 14.5664Z" fill="white"/>
<path d="M0 30.8788V33H19H38V30.8788V28.7576H31.2444H24.4889L24.0667 29.6061L23.6444 30.4545H19H14.3556L13.9333 29.6061L13.5111 28.7576H6.75556H0V30.8788Z" fill="white"/>
</svg>
