<svg width="44" height="42" viewBox="0 0 44 42" fill="none" xmlns="http://www.w3.org/2000/svg">
<rect width="44" height="42" rx="7" fill="#463EA7"/>
<path d="M24.1334 32H18.4116C13.2235 32 11 29.8024 11 24.6746V19.0194C11 13.8917 13.2235 11.6941 18.4116 11.6941H20.309C20.6944 11.6941 21.0205 12.0164 21.0205 12.3973C21.0205 12.7782 20.6944 13.1006 20.309 13.1006H18.4116C13.9943 13.1006 12.4527 14.6535 12.4527 18.9901V24.6453C12.423 29.0405 13.9943 30.5935 18.4116 30.5935H24.1334C28.5507 30.5935 30.0923 29.0405 30.0923 24.7039V22.8286C30.0923 22.4477 30.4185 22.1254 30.8039 22.1254C31.1893 22.1254 31.5154 22.4477 31.5154 22.8286V24.7039C31.5154 29.8024 29.3215 32 24.1334 32Z" fill="white"/>
<path d="M32.9977 11.4011L32.3158 10.7272C31.3078 9.73092 29.6773 9.73092 28.6693 10.7272L18.5006 20.8068C18.4413 20.8654 18.382 20.9534 18.3523 21.0706L17.0182 25.8467C16.9589 26.0518 17.0182 26.2569 17.1665 26.4034C17.3147 26.5499 17.5222 26.6085 17.7298 26.5499L22.5621 25.2021C22.6511 25.1728 22.74 25.1142 22.7993 25.0555L32.9977 14.9759C34.0057 14.0089 34.0057 12.3973 32.9977 11.4011ZM32.1972 14.1847L31.6043 14.7708L30.8039 15.5619C30.8039 15.5619 22.9179 23.444 22.4732 23.7956C22.0285 24.1472 21.3763 24.3523 21.3763 24.3523L18.4116 25.1728L19.2417 22.2426C19.2417 22.2426 19.4196 21.5101 19.7754 21.1878C20.1015 20.8361 28.0764 12.9248 28.0764 12.9248L28.8768 12.1336L29.4698 11.5476C30.033 10.9909 30.9224 10.9909 31.4857 11.5476L32.1676 12.2215C32.7309 12.749 32.7309 13.628 32.1972 14.1847Z" fill="white"/>
<path d="M22.4436 23.5026L22.5028 23.444C22.7104 23.2388 22.7104 22.8872 22.5028 22.6821L20.9316 21.1291C20.7241 20.924 20.4276 20.924 20.2201 21.0998L20.1608 21.1584C19.9236 21.3636 19.9236 21.7152 20.1311 21.9203L21.7024 23.4733C21.8803 23.6784 22.236 23.6784 22.4436 23.5026Z" fill="white"/>
<path d="M31.3671 14.6534C31.6043 14.419 31.6043 14.0674 31.3968 13.833L29.8848 12.3386C29.6773 12.1335 29.3512 12.1335 29.114 12.3093H29.0844C28.8472 12.5144 28.8175 12.8953 29.0547 13.1005L30.5963 14.6241C30.8039 14.8585 31.1596 14.8585 31.3671 14.6534Z" fill="white"/>
</svg>
