<svg width="18" height="18" viewBox="0 0 18 18" fill="none" xmlns="http://www.w3.org/2000/svg">
<path d="M0.299805 7.50061H17.6998V17.7006H0.299805V7.50061Z" fill="#FFE576"/>
<path d="M0.299805 17.7004L8.9998 11.4004L17.6998 17.7004H0.299805Z" fill="#D6C063"/>
<path d="M0.299805 7.50049L8.35649 13.3347C8.74034 13.6126 9.2593 13.6126 9.64315 13.3347L17.6998 7.50049H0.299805Z" fill="#998A47"/>
<path d="M7.49961 2.11115V0.600952L5.09961 3.00095L7.49961 5.40095V3.90095H7.55181C9.18606 3.90095 10.6918 4.78696 11.4855 6.21556L11.6996 6.60095C11.6996 4.21651 9.84497 2.26558 7.49961 2.11115Z" fill="#65B6DB"/>
<path d="M12.9006 6.60092C12.7349 6.60092 12.6006 6.4666 12.6006 6.30092C12.6006 5.22092 12.1279 4.05775 11.3037 3.10956C10.4735 2.15462 9.40824 1.56805 8.38085 1.50025C8.21551 1.48933 8.09034 1.34646 8.10125 1.18116C8.11216 1.01586 8.25594 0.890496 8.42034 0.901558C9.60624 0.979821 10.8222 1.64113 11.7565 2.71592C12.6742 3.7717 13.2006 5.07835 13.2006 6.30092C13.2006 6.4666 13.0662 6.60092 12.9006 6.60092Z" fill="#294A59"/>
<path d="M6.2998 6.00094C6.223 6.00094 6.14624 5.97165 6.08767 5.91308L3.38767 3.21308C3.27052 3.09593 3.27052 2.90599 3.38767 2.78884L6.08767 0.0888391C6.20485 -0.0283109 6.39475 -0.0283109 6.51194 0.0888391C6.62909 0.205989 6.62909 0.395927 6.51194 0.513077L4.02404 3.00094L6.51194 5.4888C6.62909 5.60595 6.62909 5.79589 6.51194 5.91304C6.45337 5.97165 6.3766 6.00094 6.2998 6.00094Z" fill="#294A59"/>
<path d="M17.7 7.20056H0.3C0.134325 7.20056 0 7.33489 0 7.50056V17.7006C0 17.8662 0.134325 18.0006 0.3 18.0006H17.7C17.8657 18.0006 18 17.8662 18 17.7006V7.50056C18 7.33489 17.8657 7.20056 17.7 7.20056ZM0.6 8.08819L6.83134 12.6005L0.6 17.1129V8.08819ZM9.46736 13.0917C9.1878 13.2942 8.81213 13.2942 8.53264 13.0917L1.22584 7.80056H16.7742L9.46736 13.0917ZM7.34284 12.9709L8.1807 13.5777C8.42576 13.7551 8.71283 13.8438 9 13.8438C9.2871 13.8438 9.57428 13.7551 9.8193 13.5777L10.6572 12.9709L16.7743 17.4006H1.22576L7.34284 12.9709ZM11.1687 12.6005L17.4 8.08819V17.1129L11.1687 12.6005Z" fill="black"/>
<path d="M4.88767 3.21305L7.28767 5.61305C7.3735 5.69889 7.50258 5.72454 7.61463 5.67808C7.72672 5.63165 7.7998 5.52227 7.7998 5.40092V4.20823C9.2275 4.29257 10.5235 5.10125 11.2235 6.36122L11.4376 6.7466C11.4914 6.8435 11.5928 6.90095 11.6998 6.90095C11.7247 6.90095 11.75 6.89784 11.7751 6.89132C11.9074 6.85704 11.9998 6.73764 11.9998 6.60092C11.9998 4.17527 10.1768 2.13545 7.7998 1.83845V0.600917C7.7998 0.479567 7.72672 0.370179 7.61463 0.323754C7.5025 0.277292 7.37343 0.303017 7.28767 0.388779L4.88767 2.78878C4.77052 2.90593 4.77052 3.0959 4.88767 3.21305ZM7.1998 1.32519V2.11112C7.1998 2.26914 7.32243 2.40009 7.48012 2.41048C9.21044 2.5244 10.6456 3.68942 11.178 5.25579C10.2768 4.2173 8.9581 3.60092 7.552 3.60092H7.4998C7.33413 3.60092 7.1998 3.73524 7.1998 3.90092V4.67664L5.52404 3.00092L7.1998 1.32519Z" fill="black"/>
<path d="M8.37991 1.50021C9.40729 1.56801 10.4726 2.15458 11.3027 3.10952C12.1269 4.05771 12.5996 5.22088 12.5996 6.30088C12.5996 6.46656 12.734 6.60088 12.8996 6.60088C13.0653 6.60088 13.1996 6.46656 13.1996 6.30088C13.1996 5.07831 12.6733 3.77166 11.7555 2.71592C10.8212 1.6411 9.60526 0.979821 8.41936 0.901558C8.25496 0.890496 8.11118 1.01586 8.10027 1.18116C8.08939 1.34646 8.21453 1.48933 8.37991 1.50021Z" fill="black"/>
<path d="M6.08767 5.91308C6.14624 5.97165 6.223 6.00094 6.2998 6.00094C6.3766 6.00094 6.45337 5.97165 6.51194 5.91308C6.62909 5.79593 6.62909 5.60599 6.51194 5.48884L4.02404 3.00094L6.51194 0.513077C6.62909 0.395927 6.62909 0.205989 6.51194 0.0888391C6.39475 -0.0283109 6.20485 -0.0283109 6.08767 0.0888391L3.38767 2.78884C3.27052 2.90599 3.27052 3.09593 3.38767 3.21308L6.08767 5.91308Z" fill="black"/>
</svg>
