<svg width="44" height="42" viewBox="0 0 44 42" fill="none" xmlns="http://www.w3.org/2000/svg">
<rect width="44" height="42" rx="7" fill="#65B540"/>
<path d="M16.7426 32.5817C8 32.5817 4.9038 27.2813 4.9038 20.7429C4.9038 14.2045 7 8.90405 16.7426 8.90405C25.5 8.90405 28.5815 14.2045 28.5815 20.7429C28.5815 27.2813 26.5 32.5817 16.7426 32.5817Z" fill="white"/>
<path d="M19.5245 16.7782V15.1946C19.5245 14.7304 20.102 14.5168 20.4041 14.8693L22.19 16.9528C22.468 17.2771 22.2376 17.7782 21.8104 17.7782H20.5245C19.9722 17.7782 19.5245 17.3305 19.5245 16.7782Z" fill="#CF2D23"/>
<rect x="8" y="19.1836" width="12.6488" height="5.34061" rx="2.67031" fill="#CF2D23"/>
<path d="M12.4974 26.2108V14.9674C12.4974 14.1912 13.1266 13.5619 13.9028 13.5619H19.827C20.2607 13.5619 20.6701 13.7622 20.9364 14.1045L22.8825 16.6067C23.0744 16.8534 23.1786 17.157 23.1786 17.4695V26.2108C23.1786 26.9869 22.5493 27.6162 21.7732 27.6162H15.5468C15.3916 27.6162 15.2657 27.742 15.2657 27.8973C15.2657 28.0525 15.3916 28.1783 15.5468 28.1783H21.7732C22.8598 28.1783 23.7407 27.2974 23.7407 26.2108V17.4695C23.7407 17.032 23.5949 16.6069 23.3263 16.2615L21.3802 13.7594C21.0074 13.2801 20.4342 12.9998 19.827 12.9998H13.9028C12.8161 12.9998 11.9352 13.8807 11.9352 14.9674V26.2108C11.9352 27.2974 12.8161 28.1783 13.9028 28.1783H15.5893C15.7445 28.1783 15.8704 28.0525 15.8704 27.8973C15.8704 27.742 15.7445 27.6162 15.5893 27.6162H13.9028C13.1266 27.6162 12.4974 26.9869 12.4974 26.2108Z" fill="#CF2D23"/>
<path d="M11.1328 20.3081C11.5721 20.3081 11.9093 20.3879 12.1445 20.5476C12.3797 20.7044 12.4974 20.9628 12.4974 21.3228C12.4974 21.6857 12.3783 21.9484 12.1403 22.111C11.9022 22.2707 11.5622 22.3505 11.1201 22.3505H10.9118V23.3608H10.2487V20.3865C10.3932 20.3575 10.5462 20.3371 10.7078 20.3255C10.8693 20.3139 11.011 20.3081 11.1328 20.3081ZM11.1754 20.8873C11.1272 20.8873 11.079 20.8888 11.0308 20.8917C10.9855 20.8946 10.9458 20.8975 10.9118 20.9004V21.7713H11.1201C11.3496 21.7713 11.5225 21.7394 11.6387 21.6755C11.7549 21.6117 11.813 21.4926 11.813 21.3184C11.813 21.2342 11.7974 21.1646 11.7662 21.1094C11.7379 21.0542 11.6954 21.0107 11.6387 20.9788C11.5848 20.9439 11.5182 20.9207 11.4389 20.9091C11.3596 20.8946 11.2717 20.8873 11.1754 20.8873Z" fill="white"/>
<path d="M13.9426 22.8078C13.9738 22.8107 14.0092 22.8136 14.0489 22.8165C14.0914 22.8165 14.141 22.8165 14.1977 22.8165C14.5292 22.8165 14.7744 22.7308 14.9331 22.5596C15.0946 22.3883 15.1754 22.1517 15.1754 21.8497C15.1754 21.5333 15.0989 21.2938 14.9458 21.1312C14.7928 20.9686 14.5505 20.8873 14.2189 20.8873C14.1736 20.8873 14.1268 20.8888 14.0787 20.8917C14.0305 20.8917 13.9851 20.8946 13.9426 20.9004V22.8078ZM15.8597 21.8497C15.8597 22.111 15.8201 22.3389 15.7407 22.5334C15.6614 22.7279 15.548 22.8891 15.4007 23.0168C15.2561 23.1446 15.079 23.2404 14.8693 23.3042C14.6596 23.3681 14.4244 23.4 14.1637 23.4C14.0446 23.4 13.9058 23.3942 13.7471 23.3826C13.5884 23.3739 13.4325 23.3536 13.2795 23.3217V20.3821C13.4325 20.3531 13.5912 20.3342 13.7556 20.3255C13.9228 20.3139 14.0659 20.3081 14.1849 20.3081C14.4371 20.3081 14.6653 20.3371 14.8693 20.3952C15.0762 20.4533 15.2533 20.5447 15.4007 20.6696C15.548 20.7944 15.6614 20.9541 15.7407 21.1486C15.8201 21.3431 15.8597 21.5768 15.8597 21.8497Z" fill="white"/>
<path d="M16.7088 23.3608V20.3429H18.6812V20.9134H17.372V21.5449H18.5367V22.1154H17.372V23.3608H16.7088Z" fill="white"/>
<path d="M34.2753 28.2301C34.1826 28.1362 34.0899 28.0892 34.0436 27.9952C33.2094 27.1496 32.3289 26.257 31.4947 25.4114C31.2167 25.1295 30.9386 25.0826 30.5679 25.1765C30.2435 25.2705 30.0581 25.5524 30.0118 25.8812C29.9655 26.1631 30.0581 26.398 30.2435 26.5859C31.6801 28.0422 33.1167 29.4985 34.5533 30.9549C34.9241 31.3307 35.4338 31.2837 35.8046 30.9079C37.1022 29.5925 38.4461 28.2301 39.7437 26.9147C39.8364 26.8208 39.929 26.7268 40.0217 26.6329C40.3461 26.257 40.3461 25.7403 40.0217 25.3644C39.6973 25.0356 39.1412 25.0356 38.7705 25.4114C37.89 26.257 37.0558 27.1496 36.1753 28.0422C36.129 28.0892 36.0826 28.1362 35.9436 28.2301C35.9436 28.0892 35.9436 27.9952 35.9436 27.9013C35.9436 24.4249 36.0859 16.3423 36.0859 12.8659C36.0859 12.725 36.0859 12.631 36.0859 12.4901C35.9933 12.0673 35.6225 11.7384 35.1591 11.7854C34.742 11.8324 34.4176 12.1612 34.3713 12.631C34.3713 12.7249 34.3713 12.8189 34.3713 12.9129C34.3713 16.3893 34.2289 24.4249 34.2289 27.9013C34.2753 27.9483 34.2753 28.0422 34.2753 28.2301Z" fill="white"/>
</svg>
