<svg width="44" height="42" viewBox="0 0 44 42" fill="none" xmlns="http://www.w3.org/2000/svg">
<rect width="44" height="42" rx="7" fill="#65B540"/>
<path d="M16.7426 32.5817C8 32.5817 4.9038 27.2813 4.9038 20.7429C4.9038 14.2045 7 8.90405 16.7426 8.90405C25.5 8.90405 28.5815 14.2045 28.5815 20.7429C28.5815 27.2813 26.5 32.5817 16.7426 32.5817Z" fill="white"/>
<path d="M17.3675 26.8833C17.3601 27.3792 17.3601 27.8676 17.3527 28.3635C17.3452 28.8594 17.0783 29.074 16.5814 28.9778C13.8819 28.4745 11.1749 27.9713 8.47545 27.4606C7.80799 27.3348 7.71899 27.2237 7.71899 26.565C7.71899 22.8349 7.71899 19.1047 7.71899 15.3672C7.71899 14.8121 7.8154 14.6789 8.37162 14.5679C11.1305 14.0498 13.8967 13.5317 16.6629 13.0137C17.0708 12.9396 17.3452 13.1765 17.3527 13.6131C17.3675 14.1164 17.3601 14.6197 17.3675 15.1304C17.4565 15.2414 17.4713 15.3746 17.4713 15.5078C17.4713 16.0925 17.4861 16.6772 17.4639 17.2545C17.4787 17.6023 17.4787 17.9576 17.4639 18.3054C17.4787 18.6755 17.4787 19.0455 17.4639 19.4156C17.4787 19.7634 17.4787 20.1039 17.4639 20.4517C17.4787 20.8218 17.4787 21.1919 17.4639 21.5619C17.4787 21.9098 17.4787 22.2576 17.4639 22.5981C17.4787 22.9681 17.4787 23.3382 17.4639 23.7082C17.4787 24.0561 17.4787 24.4113 17.4639 24.7592C17.4936 25.3439 17.4713 25.9286 17.4713 26.5132C17.4713 26.6465 17.4565 26.7797 17.3675 26.8833Z" fill="#2E7D32"/>
<path d="M17.3675 23.6786C17.3675 23.3234 17.3601 22.9681 17.3601 22.6055C17.5084 22.45 17.7012 22.4871 17.8792 22.4797C18.1981 22.4722 18.517 22.4945 18.8359 22.4722C19.1548 22.45 19.3773 22.2724 19.3402 22.0504C19.2957 21.7691 19.0881 21.6803 18.8285 21.6729C18.4725 21.6655 18.1165 21.6729 17.7606 21.6655C17.6122 21.6655 17.4639 21.6729 17.3527 21.5397C17.3527 21.1845 17.3527 20.8218 17.3527 20.4666C17.4713 20.3185 17.6345 20.3407 17.7976 20.3407C18.1388 20.3333 18.4873 20.3481 18.8285 20.3333C19.0881 20.3259 19.2957 20.2371 19.3402 19.9559C19.3699 19.7338 19.1548 19.5562 18.8359 19.534C18.4799 19.5118 18.1239 19.534 17.768 19.5266C17.6196 19.5266 17.4713 19.534 17.3601 19.4082C17.3601 19.0529 17.3601 18.6977 17.3675 18.335C17.4713 18.1722 17.6493 18.2018 17.8051 18.2018C18.1462 18.1944 18.4948 18.2092 18.8359 18.1944C19.1548 18.1796 19.3773 18.002 19.3476 17.78C19.3105 17.4913 19.0955 17.4099 18.8433 17.3951C18.5022 17.3729 18.1536 17.3951 17.8125 17.3877C17.6567 17.3877 17.4862 17.4025 17.3601 17.2693C17.3601 16.5588 17.3675 15.8409 17.3675 15.1304C19.5998 15.1304 21.8321 15.1304 24.0643 15.1304C24.6576 15.1304 24.843 15.308 24.843 15.8927C24.843 19.3046 24.843 22.7091 24.843 26.121C24.843 26.7057 24.6576 26.8833 24.0643 26.8833C21.8321 26.8833 19.5998 26.8833 17.3675 26.8833C17.3675 26.1728 17.3601 25.4549 17.3601 24.7444C17.4862 24.6112 17.6493 24.626 17.8125 24.626C18.1684 24.6186 18.5244 24.6408 18.8804 24.6112C19.1177 24.589 19.318 24.4927 19.3476 24.2263C19.3699 24.0117 19.1622 23.834 18.873 23.8192C18.517 23.797 18.161 23.8192 17.8051 23.8118C17.6493 23.8118 17.4713 23.8415 17.3675 23.6786Z" fill="#EBEEF0"/>
<path d="M10.9154 18.3351C11.1453 18.3499 11.2862 18.4609 11.4049 18.6015C11.7683 19.0234 12.1391 19.4304 12.495 19.8597C12.6285 20.0151 12.6953 20.0151 12.8214 19.8449C13.2589 19.2676 13.7113 18.6977 14.1637 18.1205C14.4381 17.7726 14.7125 17.706 14.9795 17.9058C15.2613 18.1131 15.2687 18.4239 14.9943 18.7792C14.5345 19.3712 14.0821 19.9707 13.6075 20.5554C13.4295 20.7774 13.4072 20.9181 13.6149 21.1401C14.0821 21.6286 14.5197 22.154 14.9572 22.6647C15.2539 23.0126 15.2687 23.316 15.0166 23.5381C14.757 23.7675 14.4603 23.7083 14.1563 23.3678C13.7335 22.8868 13.3034 22.4131 12.8881 21.9172C12.7398 21.747 12.6656 21.7544 12.5321 21.932C12.1687 22.4131 11.7979 22.8868 11.4197 23.3604C11.1527 23.6935 10.8709 23.7601 10.5965 23.5603C10.3221 23.3604 10.3073 23.0644 10.5668 22.7239C10.9673 22.1985 11.3678 21.6656 11.7979 21.1475C11.9611 20.9477 11.9388 20.8293 11.7757 20.659C11.3529 20.1928 10.9451 19.7191 10.5297 19.238C10.374 19.053 10.3147 18.8532 10.4407 18.6237C10.5668 18.4313 10.73 18.3499 10.9154 18.3351Z" fill="#F9F9F9"/>
<path d="M17.3601 17.262C17.8644 17.262 18.3687 17.262 18.8656 17.2694C19.2438 17.2768 19.4885 17.4914 19.4959 17.7948C19.4959 18.1057 19.2586 18.3203 18.873 18.3203C18.3687 18.3277 17.8644 18.3277 17.3675 18.3277C17.3601 17.9725 17.3601 17.6172 17.3601 17.262Z" fill="#388E3C"/>
<path d="M17.3601 19.4006C17.8644 19.4006 18.3687 19.4006 18.8656 19.408C19.2438 19.4154 19.4885 19.6227 19.4885 19.9335C19.4885 20.2444 19.2438 20.4516 18.8656 20.459C18.3613 20.4664 17.8569 20.4664 17.3601 20.4664C17.3601 20.1111 17.3601 19.7559 17.3601 19.4006Z" fill="#388E3C"/>
<path d="M17.3601 21.5396C17.8644 21.5396 18.3687 21.5396 18.8656 21.547C19.2438 21.5544 19.4885 21.7616 19.4885 22.0724C19.4885 22.3833 19.2438 22.5905 18.8656 22.5979C18.3613 22.6053 17.8569 22.6053 17.3601 22.6053C17.3601 22.2501 17.3601 21.8948 17.3601 21.5396Z" fill="#388E3C"/>
<path d="M17.3675 23.6782C17.8718 23.6782 18.3761 23.6782 18.873 23.6856C19.2512 23.693 19.4959 23.9077 19.4959 24.2185C19.4959 24.5293 19.2438 24.7366 18.8656 24.744C18.3613 24.7514 17.8569 24.7514 17.3601 24.7514C17.3601 24.3887 17.3601 24.0335 17.3675 23.6782Z" fill="#388E3C"/>
<path d="M21.6318 20.4592C21.4316 20.4592 21.2387 20.474 21.0385 20.4592C20.7418 20.4296 20.5639 20.2445 20.5564 19.9485C20.549 19.6524 20.7344 19.4526 21.0237 19.4304C21.4316 19.4008 21.8394 19.4008 22.2399 19.4304C22.5143 19.4526 22.6775 19.6524 22.6775 19.9337C22.6775 20.2371 22.5143 20.4222 22.2103 20.4518C22.0323 20.474 21.832 20.4592 21.6318 20.4592Z" fill="#388E3C"/>
<path d="M21.5873 22.5978C21.4019 22.5978 21.2165 22.62 21.0311 22.5904C20.7345 22.5534 20.5565 22.361 20.5639 22.0649C20.5713 21.7689 20.7493 21.5765 21.046 21.5543C21.439 21.532 21.8321 21.532 22.2251 21.5543C22.5218 21.5765 22.6924 21.7763 22.6849 22.0723C22.6775 22.3758 22.5069 22.5534 22.2103 22.583C22.0026 22.6126 21.795 22.5978 21.5873 22.5978Z" fill="#388E3C"/>
<path d="M21.6466 18.3203C21.4464 18.3203 21.2536 18.3351 21.0533 18.3203C20.7493 18.2981 20.5713 18.113 20.5639 17.817C20.549 17.5209 20.7344 17.3063 21.0237 17.2841C21.4241 17.2471 21.8395 17.2471 22.2399 17.2841C22.5292 17.3063 22.7071 17.5135 22.6923 17.817C22.6775 18.113 22.5069 18.2906 22.2028 18.3129C22.0174 18.3351 21.832 18.3203 21.6466 18.3203Z" fill="#388E3C"/>
<path d="M21.6467 23.6862C21.8321 23.6862 22.0175 23.6714 22.2029 23.6862C22.5069 23.7084 22.6775 23.8861 22.6924 24.1821C22.7072 24.4855 22.5292 24.6928 22.24 24.715C21.8395 24.752 21.4242 24.752 21.0237 24.715C20.7345 24.6928 20.5565 24.4781 20.5639 24.1821C20.5713 23.8861 20.7567 23.701 21.0534 23.6788C21.2462 23.6714 21.4464 23.6862 21.6467 23.6862Z" fill="#388E3C"/>
<path d="M34.6427 28.2301C34.55 28.1362 34.4574 28.0892 34.411 27.9952C33.5769 27.1496 32.6964 26.257 31.8622 25.4114C31.5841 25.1295 31.3061 25.0826 30.9353 25.1765C30.611 25.2705 30.4256 25.5524 30.3792 25.8812C30.3329 26.1631 30.4256 26.398 30.611 26.5859C32.0476 28.0422 33.4842 29.4985 34.9208 30.9549C35.2915 31.3307 35.8013 31.2837 36.172 30.9079C37.4696 29.5925 38.8135 28.2301 40.1111 26.9147C40.2038 26.8208 40.2965 26.7268 40.3892 26.6329C40.7136 26.257 40.7136 25.7403 40.3892 25.3644C40.0648 25.0356 39.5087 25.0356 39.1379 25.4114C38.2574 26.257 37.4233 27.1496 36.5428 28.0422C36.4964 28.0892 36.4501 28.1362 36.3111 28.2301C36.3111 28.0892 36.3111 27.9952 36.3111 27.9013C36.3111 24.4249 36.4534 16.3423 36.4534 12.8659C36.4534 12.725 36.4534 12.631 36.4534 12.4901C36.3607 12.0673 35.99 11.7384 35.5266 11.7854C35.1095 11.8324 34.7851 12.1612 34.7387 12.631C34.7387 12.7249 34.7387 12.8189 34.7387 12.9129C34.7387 16.3893 34.5964 24.4249 34.5964 27.9013C34.6427 27.9483 34.6427 28.0422 34.6427 28.2301Z" fill="white"/>
</svg>
