<svg width="38" height="38" viewBox="0 0 38 38" fill="none" xmlns="http://www.w3.org/2000/svg">
<path d="M19 0C8.5071 0 0 8.5071 0 19C0 29.4929 8.5071 38 19 38C29.4929 38 38 29.4929 38 19C38 8.5071 29.4929 0 19 0ZM30.0764 30.0776C29.3152 30.8388 28.3039 31.2581 27.2276 31.2581C26.1514 31.2581 25.1388 30.8388 24.3788 30.0776C23.3161 29.0148 22.9361 27.4311 23.3896 26.003L19.9488 22.5622L15.303 27.208C15.097 27.4139 14.8605 27.5819 14.5981 27.7081L13.2105 28.3762L12.7692 29.5603C12.6981 29.7515 12.589 29.9219 12.4444 30.0654L11.9896 30.5201C11.7138 30.7959 11.3522 30.9332 10.9906 30.9332C10.629 30.9332 10.2674 30.7959 9.99155 30.5201L7.82677 28.3554C7.27639 27.805 7.27639 26.9077 7.82677 26.3573L8.28155 25.9025C8.42619 25.7579 8.59658 25.6488 8.78658 25.5777L9.97071 25.1364L10.6388 23.7488C10.765 23.4865 10.933 23.2499 11.1389 23.0439L15.7847 18.3981L12.361 14.9732C10.8337 15.5028 9.13226 15.1166 7.98368 13.9668C6.83264 12.8158 6.44529 11.1414 6.97361 9.59929C7.00058 9.51961 7.068 9.45955 7.15013 9.43994C7.23226 9.42032 7.31929 9.44606 7.37813 9.5049L9.75987 11.8866L11.5214 11.5189L11.8891 9.75742L9.50735 7.37568C9.44729 7.31561 9.42277 7.22981 9.44239 7.14645C9.462 7.06432 9.52206 6.9969 9.60174 6.96994C11.1438 6.44161 12.817 6.82774 13.9693 7.98C15.1179 9.12858 15.504 10.8312 14.9757 12.3574L18.4006 15.7823L19.1066 15.0762C19.4756 14.7072 20.0763 14.7072 20.444 15.0762L21.1476 15.7798L27.2595 9.66794V8.95819C27.2595 8.86871 27.3085 8.78535 27.387 8.74245L30.1034 7.26536C30.199 7.21387 30.3166 7.23103 30.3939 7.30703L31.0374 7.95058C31.1146 8.02781 31.1318 8.14548 31.0791 8.2411L29.602 10.9575C29.5591 11.0359 29.477 11.085 29.3863 11.085H28.6765L22.5646 17.1968L23.2683 17.9005C23.6372 18.2694 23.6372 18.8688 23.2683 19.2378L22.5622 19.9451L26.003 23.3859C27.4299 22.9336 29.0136 23.3136 30.0764 24.3764C30.8376 25.1376 31.2568 26.1489 31.2568 27.2264C31.2568 28.3039 30.8376 29.3152 30.0764 30.0752V30.0776Z" fill="white"/>
</svg>
