<svg width="32" height="32" viewBox="0 0 60 64" fill="none" xmlns="http://www.w3.org/2000/svg">
<path d="M54.1682 0H54.158C51.209 0 48.8184 2.39063 48.8184 5.33936V21.6665H56.5076C58.1646 21.6665 59.5076 20.3237 59.5076 18.6665V5.33936C59.5076 2.39063 57.1172 0 54.1682 0Z" fill="white"/>
<path d="M37.8433 44.7988H36.5264V46.6157H37.8848C38.5843 46.6157 39.293 46.3843 39.293 45.6821C39.293 44.9262 38.6007 44.7988 37.8433 44.7988Z" fill="white"/>
<path d="M57.489 38.1504H33.2891C32.1846 38.1504 31.2891 39.0459 31.2891 40.1504V53.5308C31.2891 54.6353 32.1846 55.5308 33.2891 55.5308H57.489C58.5938 55.5308 59.489 54.6353 59.489 53.5308V40.1504C59.489 39.0503 58.5891 38.1504 57.489 38.1504ZM40.3015 49.0322V49.4155C40.3015 49.7079 40.0735 49.9404 39.7766 49.9404C39.4537 49.9404 39.2434 49.715 39.2434 49.4155V49.1655C39.2434 48.6682 39.2047 48.2146 38.8548 47.8677C38.6956 47.7114 38.4422 47.6323 38.1018 47.6323H36.5266V49.4155C36.5266 49.7242 36.2714 49.9461 35.9818 49.9398C35.7038 49.9338 35.4685 49.7183 35.4685 49.4155V44.3159C35.4685 44.0229 35.6948 43.7827 35.9934 43.7827H37.9348C39.6518 43.7827 40.3513 44.6284 40.3513 45.624C40.3513 46.2212 40.057 46.8076 39.4924 47.1255C40.0876 47.4618 40.3015 48.3467 40.3015 49.0322ZM46.1677 49.9404C45.9483 49.9404 45.7636 49.8141 45.6736 49.6206L45.1677 48.4072H42.5349L42.0315 49.6147C41.9165 49.8649 41.6643 49.9815 41.4152 49.9275C41.1215 49.8639 40.9096 49.5563 41.0632 49.1909L43.1882 44.1733C43.3024 43.9168 43.5146 43.7407 43.8098 43.7407H43.8933C44.1845 43.7407 44.3992 43.914 44.5134 44.1714L46.6394 49.1899C46.8095 49.5991 46.5299 49.9404 46.1677 49.9404ZM55.2786 44.438L53.6433 49.4619C53.526 49.7854 53.2808 49.9404 53.009 49.9404C52.7224 49.9404 52.4592 49.7466 52.3738 49.4585L51.1756 45.6636L49.9773 49.4605C49.8846 49.7675 49.6019 49.9533 49.3082 49.9394C49.0183 49.9256 48.8087 49.738 48.7097 49.4668L47.075 44.4453C46.9694 44.0621 47.1585 43.8244 47.4031 43.759C47.6579 43.6908 47.9729 43.8098 48.0774 44.146L49.3347 48.2779L50.5989 44.1636C50.6758 43.9036 50.9172 43.7411 51.1758 43.7411C51.4309 43.7411 51.6745 43.8999 51.7532 44.1646L53.0169 48.2779L54.2742 44.147C54.3662 43.8469 54.6436 43.6863 54.93 43.7565C55.188 43.8198 55.3828 44.0606 55.2786 44.438Z" fill="white"/>
<path d="M42.9512 47.416H44.752L43.8516 45.249L42.9512 47.416Z" fill="white"/>
<path d="M3 0C1.34009 0 0 1.34033 0 3V61C0 62.6499 1.34985 64 3 64H44.3201C45.97 64 47.3201 62.6499 47.3201 61V57.0303H33.29C31.3601 57.0303 29.79 55.46 29.79 53.5303V52.0601H6.25C5.84009 52.0601 5.5 51.7202 5.5 51.3101C5.5 50.8999 5.84009 50.5601 6.25 50.5601H29.79V47.1099H6.34008C5.92992 47.1099 5.59008 46.77 5.59008 46.3599C5.59008 45.9502 5.92992 45.6099 6.34008 45.6099H29.79V42.1601H6.25C5.84009 42.1601 5.5 41.8301 5.5 41.4101C5.5 41 5.84009 40.6601 6.25 40.6601H29.79V40.1499C29.79 38.2202 31.3601 36.6499 33.29 36.6499H47.3201C47.3269 14.3661 47.3034 5.2109 47.3499 4.77002C47.5 2.84033 48.47 1.13037 49.9099 0H3ZM6.16992 55.5103H19.79C20.21 55.5103 20.54 55.8501 20.54 56.2603C20.54 56.6704 20.21 57.0103 19.79 57.0103H6.16992C5.75 57.0103 5.41992 56.6704 5.41992 56.2603C5.41992 55.8501 5.75 55.5103 6.16992 55.5103ZM12.1399 33.1001C12.1399 33.6099 11.73 34.0303 11.22 34.0303H7.57983C7.07006 34.0303 6.65991 33.6099 6.65991 33.1001V26.0103C6.65991 25.5 7.07007 25.0903 7.57983 25.0903H11.22C11.73 25.0903 12.1399 25.5 12.1399 26.0103V33.1001ZM21.6499 33.1001C21.6499 33.6099 21.23 34.0303 20.72 34.0303H17.0901C16.5798 34.0303 16.1599 33.6099 16.1599 33.1001V20.6704C16.1599 20.1602 16.5798 19.75 17.0901 19.75H20.72C21.23 19.75 21.6499 20.1602 21.6499 20.6704L21.6499 33.1001ZM31.1499 33.1001C31.1499 33.6099 30.74 34.0303 30.23 34.0303H26.5901C26.0798 34.0303 25.6699 33.6099 25.6699 33.1001V28.7002C25.6699 28.1899 26.0798 27.7803 26.5901 27.7803H30.23C30.74 27.7803 31.1499 28.1899 31.1499 28.7002L31.1499 33.1001ZM30.3799 15.8101C29.4399 16.6001 28.1199 16.7603 27.02 16.2202L20.01 12.73C19.4299 12.44 18.75 12.5303 18.27 12.9502L9.65991 20.4702C9.52002 20.5903 9.34009 20.6602 9.16992 20.6602C8.95996 20.6602 8.75 20.5703 8.59985 20.3999C8.32983 20.0903 8.3601 19.6099 8.67993 19.3403L17.28 11.8203C18.22 11 19.55 10.8301 20.6799 11.3804L27.6799 14.8701C28.25 15.1499 28.9299 15.0703 29.4099 14.6602L36.6299 8.53029L34.6699 8.38039C34.25 8.35012 33.9399 7.99025 33.98 7.5801C34.01 7.16018 34.3699 6.85012 34.78 6.89016C40.0163 7.30003 38.2947 7.18996 38.6399 7.18996C39.0356 7.26476 39.25 7.57901 39.25 7.98L38.96 11.75C38.9299 12.1499 38.5999 12.4502 38.22 12.4502H38.1599C37.75 12.4102 37.4399 12.0503 37.47 11.6401L37.6199 9.66016L30.3799 15.8101ZM40.6599 33.1001C40.6599 33.6099 40.25 34.0303 39.74 34.0303H36.0998C35.5901 34.0303 35.1799 33.6099 35.1799 33.1001V16.9204C35.1799 16.4102 35.5901 16 36.0998 16H39.74C40.25 16 40.6599 16.4102 40.6599 16.9204V33.1001Z" fill="white"/>
</svg>
