<svg width="39" height="38" viewBox="0 0 39 38" fill="none" xmlns="http://www.w3.org/2000/svg">
<path fill-rule="evenodd" clip-rule="evenodd" d="M8.92089 0.109703L6.01094 1.78974C9.11735 3.58322 12.2237 5.37671 15.3301 7.17019V11.4076L12.6275 12.9679V8.73057L3.30829 3.35012L0.39834 5.03015C0.144996 5.17642 0 5.42754 0 5.72008V15.5611C0 15.8537 0.144996 16.1048 0.39834 16.2511L8.92089 21.1715C9.17424 21.3178 9.46423 21.3178 9.71749 21.1715L18.24 16.2511C18.4934 16.1048 18.6384 15.8537 18.6384 15.5611V5.72008C18.6384 5.42754 18.4934 5.17642 18.24 5.03015L9.71749 0.109703C9.46423 -0.0365676 9.17424 -0.0365676 8.92089 0.109703ZM12.0755 29.3748L12.2596 27.646L16.4579 31.4721L11.4979 34.7987L11.6749 33.1368C5.31879 32.4601 2.15494 26.8129 4.04458 23.0632C4.64257 27.1499 9.83827 29.1365 12.0755 29.3748ZM26.1651 8.62525L25.9811 10.354L21.7828 6.52791L26.7428 3.2013L26.5658 4.86317C32.922 5.53995 36.0858 11.1871 34.1962 14.9368C33.598 10.8501 28.4023 8.86345 26.1651 8.62525ZM28.523 16.8285L25.6131 18.5085C28.7195 20.302 31.8258 22.0955 34.9322 23.889V28.1264L32.2297 29.6867V25.4494L22.9105 20.0689L20.0005 21.7489C19.7471 21.8952 19.6021 22.1463 19.6021 22.4389V32.2799C19.6021 32.5725 19.7471 32.8236 20.0005 32.9698L28.523 37.8903C28.7764 38.0366 29.0664 38.0366 29.3196 37.8903L37.8422 32.9698C38.0955 32.8236 38.2405 32.5725 38.2405 32.2799V22.4389C38.2405 22.1463 38.0955 21.8952 37.8422 21.7489L29.3196 16.8285C29.0664 16.6823 28.7764 16.6822 28.523 16.8285Z" fill="white"/>
</svg>
