<svg width="40" height="38" viewBox="0 0 40 38" fill="none" xmlns="http://www.w3.org/2000/svg">
<path fill-rule="evenodd" clip-rule="evenodd" d="M17.4328 0.213565L22.5706 3.17986L5.91338 12.7969V19.9232C5.91338 20.208 6.05453 20.4525 6.30118 20.5949L10.1623 22.8241C10.2856 22.8953 10.4267 22.8953 10.5501 22.8241C10.6734 22.7529 10.744 22.6307 10.744 22.4883V15.5859L27.4013 5.96881L32.5391 8.93511C33.0323 9.21986 33.3147 9.70887 33.3147 10.2784V19.1925C31.9198 18.722 30.4439 18.4682 28.9697 18.3783V17.7806C28.9697 17.1295 28.598 16.5457 28.008 16.2702C27.4183 15.9948 26.7318 16.0845 26.2327 16.5022L20.3186 21.4521C19.828 21.8627 19.5599 22.4614 19.5804 23.1008C19.6008 23.7429 19.9045 24.319 20.4224 24.699L26.3166 29.0234C26.8256 29.3968 27.493 29.4517 28.0561 29.1663C28.6198 28.8807 28.9698 28.3112 28.9698 27.6793V27.0195C30.1965 27.1658 31.4109 27.5429 32.408 28.2649C32.6015 28.4049 32.7849 28.5574 32.9555 28.7213C32.8414 28.8551 32.7017 28.9711 32.5392 29.0649L17.4328 37.7864C16.9396 38.0712 16.375 38.0712 15.8817 37.7864L0.77559 29.0649C0.282293 28.7801 0 28.2911 0 27.7215V10.2785C0 9.70887 0.282293 9.21986 0.77559 8.93519L15.8818 0.213565C16.375 -0.0711884 16.9396 -0.0711884 17.4328 0.213565ZM27.6995 25.6757C35.9945 25.6757 38.3452 33.5983 31.5318 37.1593C31.4945 37.1787 31.4785 37.2234 31.4956 37.2618C31.5117 37.2976 31.5496 37.3166 31.5876 37.307C42.9076 34.5227 42.1162 19.6102 27.6995 19.6102V17.7806C27.6995 17.6228 27.6136 17.4878 27.4706 17.421C27.3276 17.3543 27.1689 17.375 27.0479 17.4763L21.1338 22.4263C20.9404 22.5881 20.8418 22.8083 20.8498 23.0604C20.8579 23.3124 20.9704 23.5259 21.1737 23.6751L27.0679 27.9994C27.1916 28.0901 27.3452 28.1027 27.482 28.0334C27.6188 27.9641 27.6995 27.8327 27.6995 27.6794V25.6757Z" fill="white"/>
</svg>
