<svg width="32" height="32" viewBox="0 0 32 32" fill="none" xmlns="http://www.w3.org/2000/svg">
<path fill-rule="evenodd" clip-rule="evenodd" d="M4.6002 0H5.87943C6.23475 0 6.52456 0.267148 6.52456 0.594689V3.60741C6.52456 3.93495 6.23475 4.2021 5.87943 4.2021H4.6002C4.24488 4.2021 3.95507 3.93495 3.95507 3.60741V0.594689C3.955 0.267148 4.24488 0 4.6002 0ZM0 6.12649H31.9999V4.36302C31.9999 3.05279 30.8406 1.9842 29.4193 1.9842H29.183V3.60748C29.183 4.5141 28.3833 5.25134 27.3997 5.25134H26.1204C25.1369 5.25134 24.3371 4.5141 24.3371 3.60748V1.98413H22.0096V3.60741C22.0096 4.51403 21.2098 5.25128 20.2263 5.25128H18.947C17.9634 5.25128 17.1637 4.51403 17.1637 3.60741V1.98413H14.8361V3.60741C14.8361 4.51403 14.0363 5.25128 13.0528 5.25128H11.7735C10.79 5.25128 9.99021 4.51403 9.99021 3.60741V1.98413H7.66273V3.60741C7.66273 4.51403 6.86295 5.25128 5.87943 5.25128H4.6002C3.61668 5.25128 2.8169 4.51403 2.8169 3.60741V1.98413H2.58066C1.1593 1.98413 0 3.05279 0 4.36295V6.12649ZM0 7.17567V24.4047C0 25.7149 1.1593 26.7835 2.58066 26.7835H8.0098C7.94044 26.3885 7.90559 25.9886 7.90559 25.5876C7.90559 24.1378 8.35836 22.7396 9.19577 21.5443V21.0132C9.19577 20.7965 9.38748 20.6197 9.62258 20.6197H9.96041C11.2029 19.3374 12.879 18.4889 14.723 18.2188C14.6282 18.1465 14.5675 18.0373 14.5675 17.9155V16.0614C14.5675 15.8447 14.7592 15.668 14.9943 15.668H17.0057C17.2408 15.668 17.4325 15.8447 17.4325 16.0614V17.9155C17.4325 18.0376 17.3716 18.147 17.2764 18.2193C17.9544 18.319 18.6178 18.4986 19.2465 18.7527C19.3271 18.7182 19.4112 18.6893 19.4981 18.6665C20.4028 18.4292 21.3485 18.9148 21.6066 19.7485L21.8763 20.6197H22.3774C22.6125 20.6197 22.8042 20.7965 22.8042 21.0132V21.5905C22.8761 21.6659 22.9411 21.7487 22.9979 21.8387C23.7177 22.9799 24.0945 24.2674 24.0945 25.5877C24.0945 25.9914 24.0593 26.3911 23.9906 26.7836H25.4426V22.3828C25.4426 21.4761 26.2424 20.7389 27.2259 20.7389H32V7.17574L0 7.17567ZM6.68895 22.8673C6.68895 23.084 6.49724 23.2607 6.26214 23.2607H4.25078C4.01568 23.2607 3.82397 23.084 3.82397 22.8673V21.0132C3.82397 20.7965 4.01568 20.6198 4.25078 20.6198H6.26214C6.49724 20.6198 6.68895 20.7965 6.68895 21.0132V22.8673ZM6.68895 17.9155C6.68895 18.1322 6.49724 18.3089 6.26214 18.3089H4.25078C4.01568 18.3089 3.82397 18.1322 3.82397 17.9155V16.0614C3.82397 15.8447 4.01568 15.668 4.25078 15.668H6.26214C6.49724 15.668 6.68895 15.8447 6.68895 16.0614V17.9155ZM6.68895 12.9637C6.68895 13.1805 6.49724 13.3572 6.26214 13.3572H4.25078C4.01568 13.3572 3.82397 13.1805 3.82397 12.9637V11.1097C3.82397 10.893 4.01568 10.7163 4.25078 10.7163H6.26214C6.49724 10.7163 6.68895 10.893 6.68895 11.1097V12.9637ZM12.0607 17.9155C12.0607 18.1322 11.869 18.3089 11.6339 18.3089H9.62251C9.38741 18.3089 9.1957 18.1322 9.1957 17.9155V16.0614C9.1957 15.8447 9.38741 15.668 9.62251 15.668H11.6339C11.8689 15.668 12.0607 15.8447 12.0607 16.0614V17.9155ZM12.0607 12.9637C12.0607 13.1805 11.869 13.3572 11.6339 13.3572H9.62251C9.38741 13.3572 9.1957 13.1805 9.1957 12.9637V11.1097C9.1957 10.893 9.38741 10.7163 9.62251 10.7163H11.6339C11.8689 10.7163 12.0607 10.893 12.0607 11.1097V12.9637ZM17.4324 12.9637C17.4324 13.1805 17.2407 13.3572 17.0056 13.3572H14.9942C14.7591 13.3572 14.5674 13.1805 14.5674 12.9637V11.1097C14.5674 10.893 14.7591 10.7163 14.9942 10.7163H17.0056C17.2407 10.7163 17.4324 10.893 17.4324 11.1097V12.9637ZM22.8042 17.9155C22.8042 18.1322 22.6124 18.3089 22.3773 18.3089H20.3661C20.131 18.3089 19.9392 18.1322 19.9392 17.9155V16.0614C19.9392 15.8447 20.131 15.668 20.3661 15.668H22.3773C22.6124 15.668 22.8042 15.8447 22.8042 16.0614V17.9155ZM22.8042 12.9637C22.8042 13.1805 22.6124 13.3572 22.3773 13.3572H20.3661C20.131 13.3572 19.9392 13.1805 19.9392 12.9637V11.1097C19.9392 10.893 20.131 10.7163 20.3661 10.7163H22.3773C22.6124 10.7163 22.8042 10.893 22.8042 11.1097V12.9637ZM28.176 17.9155C28.176 18.1322 27.9842 18.3089 27.7491 18.3089H25.7379C25.5028 18.3089 25.311 18.1322 25.311 17.9155V16.0614C25.311 15.8447 25.5028 15.668 25.7379 15.668H27.7491C27.9842 15.668 28.176 15.8447 28.176 16.0614V17.9155ZM28.176 12.9637C28.176 13.1805 27.9842 13.3572 27.7491 13.3572H25.7379C25.5028 13.3572 25.311 13.1805 25.311 12.9637V11.1097C25.311 10.893 25.5028 10.7163 25.7379 10.7163H27.7491C27.9842 10.7163 28.176 10.893 28.176 11.1097V12.9637ZM26.5806 22.3827C26.5806 22.0551 26.8704 21.788 27.2257 21.788H31.7762C31.6511 22.0407 31.4735 22.2732 31.244 22.4847L27.3364 26.0868C27.1069 26.2984 26.8546 26.462 26.5806 26.5774V22.3827ZM10.9686 28.285C11.1258 28.5351 11.0332 28.8553 10.7619 29.0001C10.4906 29.145 10.1432 29.0597 9.98609 28.8096C9.36692 27.8299 9.04375 26.7212 9.04375 25.5876C9.04375 22.0463 12.1583 19.1752 16 19.1752C17.2022 19.1752 18.3831 19.4621 19.4279 20.0084C19.4867 19.8523 19.6243 19.7243 19.8096 19.6757C20.1117 19.5965 20.4262 19.758 20.5121 20.0363L20.8354 21.0809C20.9213 21.3592 20.7461 21.6492 20.4442 21.7284C20.3854 21.7438 20.3262 21.7501 20.2683 21.7482L19.131 21.7858C18.8179 21.796 18.5552 21.5703 18.5441 21.2817C18.5377 21.1125 18.6192 20.9592 18.7509 20.8593C17.9028 20.4384 16.9644 20.2244 16.0001 20.2244C12.7868 20.2244 10.182 22.6255 10.182 25.5876C10.1819 26.538 10.4493 27.4635 10.9686 28.285ZM12.572 31.167C12.5133 31.3229 12.3757 31.4509 12.1904 31.4995C11.8883 31.5788 11.5738 31.4172 11.4879 31.1389L11.1646 30.0944C11.0583 29.7499 11.3498 29.4146 11.7318 29.427L12.8691 29.3894C13.1821 29.3792 13.4449 29.6049 13.4559 29.8935C13.4624 30.0628 13.3808 30.2162 13.249 30.3161C14.0972 30.7369 15.0356 30.9508 16 30.9508C19.2133 30.9508 21.8181 28.5497 21.8181 25.5876C21.8181 24.6372 21.5505 23.7121 21.0313 22.8906C20.8742 22.6405 20.9667 22.3203 21.238 22.1755C21.5093 22.0306 21.8567 22.1159 22.0138 22.366C22.633 23.3456 22.9562 24.454 22.9562 25.5876C22.9562 29.129 19.8416 32 16 32C14.7976 32 13.6171 31.7132 12.572 31.167ZM26.1204 0H27.3997C27.7551 0 28.0449 0.267148 28.0449 0.594689V3.60741C28.0449 3.93495 27.7551 4.2021 27.3997 4.2021H26.1204C25.7651 4.2021 25.4753 3.93495 25.4753 3.60741V0.594689C25.4753 0.267148 25.7651 0 26.1204 0ZM18.947 0H20.2263C20.5817 0 20.8715 0.267148 20.8715 0.594689V3.60741C20.8715 3.93495 20.5817 4.2021 20.2263 4.2021H18.947C18.5917 4.2021 18.3019 3.93495 18.3019 3.60741V0.594689C18.3018 0.267148 18.5916 0 18.947 0ZM11.7736 0H13.0529C13.4082 0 13.698 0.267148 13.698 0.594689V3.60741C13.698 3.93495 13.4082 4.2021 13.0529 4.2021H11.7736C11.4183 4.2021 11.1284 3.93495 11.1284 3.60741V0.594689C11.1285 0.267148 11.4183 0 11.7736 0Z" fill="white"/>
<path fill-rule="evenodd" clip-rule="evenodd" d="M4.6002 0H5.87943C6.23475 0 6.52456 0.267148 6.52456 0.594689V3.60741C6.52456 3.93495 6.23475 4.2021 5.87943 4.2021H4.6002C4.24488 4.2021 3.95507 3.93495 3.95507 3.60741V0.594689C3.955 0.267148 4.24488 0 4.6002 0ZM0 6.12649H31.9999V4.36302C31.9999 3.05279 30.8406 1.9842 29.4193 1.9842H29.183V3.60748C29.183 4.5141 28.3833 5.25134 27.3997 5.25134H26.1204C25.1369 5.25134 24.3371 4.5141 24.3371 3.60748V1.98413H22.0096V3.60741C22.0096 4.51403 21.2098 5.25128 20.2263 5.25128H18.947C17.9634 5.25128 17.1637 4.51403 17.1637 3.60741V1.98413H14.8361V3.60741C14.8361 4.51403 14.0363 5.25128 13.0528 5.25128H11.7735C10.79 5.25128 9.99021 4.51403 9.99021 3.60741V1.98413H7.66273V3.60741C7.66273 4.51403 6.86295 5.25128 5.87943 5.25128H4.6002C3.61668 5.25128 2.8169 4.51403 2.8169 3.60741V1.98413H2.58066C1.1593 1.98413 0 3.05279 0 4.36295V6.12649ZM0 7.17567V24.4047C0 25.7149 1.1593 26.7835 2.58066 26.7835H8.0098C7.94044 26.3885 7.90559 25.9886 7.90559 25.5876C7.90559 24.1378 8.35836 22.7396 9.19577 21.5443V21.0132C9.19577 20.7965 9.38748 20.6197 9.62258 20.6197H9.96041C11.2029 19.3374 12.879 18.4889 14.723 18.2188C14.6282 18.1465 14.5675 18.0373 14.5675 17.9155V16.0614C14.5675 15.8447 14.7592 15.668 14.9943 15.668H17.0057C17.2408 15.668 17.4325 15.8447 17.4325 16.0614V17.9155C17.4325 18.0376 17.3716 18.147 17.2764 18.2193C17.9544 18.319 18.6178 18.4986 19.2465 18.7527C19.3271 18.7182 19.4112 18.6893 19.4981 18.6665C20.4028 18.4292 21.3485 18.9148 21.6066 19.7485L21.8763 20.6197H22.3774C22.6125 20.6197 22.8042 20.7965 22.8042 21.0132V21.5905C22.8761 21.6659 22.9411 21.7487 22.9979 21.8387C23.7177 22.9799 24.0945 24.2674 24.0945 25.5877C24.0945 25.9914 24.0593 26.3911 23.9906 26.7836H25.4426V22.3828C25.4426 21.4761 26.2424 20.7389 27.2259 20.7389H32V7.17574L0 7.17567ZM6.68895 22.8673C6.68895 23.084 6.49724 23.2607 6.26214 23.2607H4.25078C4.01568 23.2607 3.82397 23.084 3.82397 22.8673V21.0132C3.82397 20.7965 4.01568 20.6198 4.25078 20.6198H6.26214C6.49724 20.6198 6.68895 20.7965 6.68895 21.0132V22.8673ZM6.68895 17.9155C6.68895 18.1322 6.49724 18.3089 6.26214 18.3089H4.25078C4.01568 18.3089 3.82397 18.1322 3.82397 17.9155V16.0614C3.82397 15.8447 4.01568 15.668 4.25078 15.668H6.26214C6.49724 15.668 6.68895 15.8447 6.68895 16.0614V17.9155ZM6.68895 12.9637C6.68895 13.1805 6.49724 13.3572 6.26214 13.3572H4.25078C4.01568 13.3572 3.82397 13.1805 3.82397 12.9637V11.1097C3.82397 10.893 4.01568 10.7163 4.25078 10.7163H6.26214C6.49724 10.7163 6.68895 10.893 6.68895 11.1097V12.9637ZM12.0607 17.9155C12.0607 18.1322 11.869 18.3089 11.6339 18.3089H9.62251C9.38741 18.3089 9.1957 18.1322 9.1957 17.9155V16.0614C9.1957 15.8447 9.38741 15.668 9.62251 15.668H11.6339C11.8689 15.668 12.0607 15.8447 12.0607 16.0614V17.9155ZM12.0607 12.9637C12.0607 13.1805 11.869 13.3572 11.6339 13.3572H9.62251C9.38741 13.3572 9.1957 13.1805 9.1957 12.9637V11.1097C9.1957 10.893 9.38741 10.7163 9.62251 10.7163H11.6339C11.8689 10.7163 12.0607 10.893 12.0607 11.1097V12.9637ZM17.4324 12.9637C17.4324 13.1805 17.2407 13.3572 17.0056 13.3572H14.9942C14.7591 13.3572 14.5674 13.1805 14.5674 12.9637V11.1097C14.5674 10.893 14.7591 10.7163 14.9942 10.7163H17.0056C17.2407 10.7163 17.4324 10.893 17.4324 11.1097V12.9637ZM22.8042 17.9155C22.8042 18.1322 22.6124 18.3089 22.3773 18.3089H20.3661C20.131 18.3089 19.9392 18.1322 19.9392 17.9155V16.0614C19.9392 15.8447 20.131 15.668 20.3661 15.668H22.3773C22.6124 15.668 22.8042 15.8447 22.8042 16.0614V17.9155ZM22.8042 12.9637C22.8042 13.1805 22.6124 13.3572 22.3773 13.3572H20.3661C20.131 13.3572 19.9392 13.1805 19.9392 12.9637V11.1097C19.9392 10.893 20.131 10.7163 20.3661 10.7163H22.3773C22.6124 10.7163 22.8042 10.893 22.8042 11.1097V12.9637ZM28.176 17.9155C28.176 18.1322 27.9842 18.3089 27.7491 18.3089H25.7379C25.5028 18.3089 25.311 18.1322 25.311 17.9155V16.0614C25.311 15.8447 25.5028 15.668 25.7379 15.668H27.7491C27.9842 15.668 28.176 15.8447 28.176 16.0614V17.9155ZM28.176 12.9637C28.176 13.1805 27.9842 13.3572 27.7491 13.3572H25.7379C25.5028 13.3572 25.311 13.1805 25.311 12.9637V11.1097C25.311 10.893 25.5028 10.7163 25.7379 10.7163H27.7491C27.9842 10.7163 28.176 10.893 28.176 11.1097V12.9637ZM26.5806 22.3827C26.5806 22.0551 26.8704 21.788 27.2257 21.788H31.7762C31.6511 22.0407 31.4735 22.2732 31.244 22.4847L27.3364 26.0868C27.1069 26.2984 26.8546 26.462 26.5806 26.5774V22.3827ZM10.9686 28.285C11.1258 28.5351 11.0332 28.8553 10.7619 29.0001C10.4906 29.145 10.1432 29.0597 9.98609 28.8096C9.36692 27.8299 9.04375 26.7212 9.04375 25.5876C9.04375 22.0463 12.1583 19.1752 16 19.1752C17.2022 19.1752 18.3831 19.4621 19.4279 20.0084C19.4867 19.8523 19.6243 19.7243 19.8096 19.6757C20.1117 19.5965 20.4262 19.758 20.5121 20.0363L20.8354 21.0809C20.9213 21.3592 20.7461 21.6492 20.4442 21.7284C20.3854 21.7438 20.3262 21.7501 20.2683 21.7482L19.131 21.7858C18.8179 21.796 18.5552 21.5703 18.5441 21.2817C18.5377 21.1125 18.6192 20.9592 18.7509 20.8593C17.9028 20.4384 16.9644 20.2244 16.0001 20.2244C12.7868 20.2244 10.182 22.6255 10.182 25.5876C10.1819 26.538 10.4493 27.4635 10.9686 28.285ZM12.572 31.167C12.5133 31.3229 12.3757 31.4509 12.1904 31.4995C11.8883 31.5788 11.5738 31.4172 11.4879 31.1389L11.1646 30.0944C11.0583 29.7499 11.3498 29.4146 11.7318 29.427L12.8691 29.3894C13.1821 29.3792 13.4449 29.6049 13.4559 29.8935C13.4624 30.0628 13.3808 30.2162 13.249 30.3161C14.0972 30.7369 15.0356 30.9508 16 30.9508C19.2133 30.9508 21.8181 28.5497 21.8181 25.5876C21.8181 24.6372 21.5505 23.7121 21.0313 22.8906C20.8742 22.6405 20.9667 22.3203 21.238 22.1755C21.5093 22.0306 21.8567 22.1159 22.0138 22.366C22.633 23.3456 22.9562 24.454 22.9562 25.5876C22.9562 29.129 19.8416 32 16 32C14.7976 32 13.6171 31.7132 12.572 31.167ZM26.1204 0H27.3997C27.7551 0 28.0449 0.267148 28.0449 0.594689V3.60741C28.0449 3.93495 27.7551 4.2021 27.3997 4.2021H26.1204C25.7651 4.2021 25.4753 3.93495 25.4753 3.60741V0.594689C25.4753 0.267148 25.7651 0 26.1204 0ZM18.947 0H20.2263C20.5817 0 20.8715 0.267148 20.8715 0.594689V3.60741C20.8715 3.93495 20.5817 4.2021 20.2263 4.2021H18.947C18.5917 4.2021 18.3019 3.93495 18.3019 3.60741V0.594689C18.3018 0.267148 18.5916 0 18.947 0ZM11.7736 0H13.0529C13.4082 0 13.698 0.267148 13.698 0.594689V3.60741C13.698 3.93495 13.4082 4.2021 13.0529 4.2021H11.7736C11.4183 4.2021 11.1284 3.93495 11.1284 3.60741V0.594689C11.1285 0.267148 11.4183 0 11.7736 0Z" fill="white"/>
<path fill-rule="evenodd" clip-rule="evenodd" d="M16 29.967C18.5536 29.967 20.6238 28.0587 20.6238 25.7047C20.6238 23.3507 18.5536 21.4424 16 21.4424C13.4463 21.4424 11.3762 23.3507 11.3762 25.7047C11.3762 28.0587 13.4463 29.967 16 29.967ZM15.5731 23.8681C15.9715 23.8681 16.3129 24.0831 16.4723 24.3927H14.2927V24.9172H16.5576C16.4893 25.3631 16.0739 25.7041 15.5731 25.7041H14.5772V26.2287L16.4922 28.0648H17.2804L15.3654 26.2287H15.5731C16.3897 26.2287 17.0613 25.6517 17.1324 24.9172H17.7072V24.3927H17.0783C17.0186 24.1986 16.9161 24.0202 16.7796 23.8681H17.7072V23.3435H14.2927V23.8681H15.5731Z" fill="white"/>
<path fill-rule="evenodd" clip-rule="evenodd" d="M16 29.967C18.5536 29.967 20.6238 28.0587 20.6238 25.7047C20.6238 23.3507 18.5536 21.4424 16 21.4424C13.4463 21.4424 11.3762 23.3507 11.3762 25.7047C11.3762 28.0587 13.4463 29.967 16 29.967ZM15.5731 23.8681C15.9715 23.8681 16.3129 24.0831 16.4723 24.3927H14.2927V24.9172H16.5576C16.4893 25.3631 16.0739 25.7041 15.5731 25.7041H14.5772V26.2287L16.4922 28.0648H17.2804L15.3654 26.2287H15.5731C16.3897 26.2287 17.0613 25.6517 17.1324 24.9172H17.7072V24.3927H17.0783C17.0186 24.1986 16.9161 24.0202 16.7796 23.8681H17.7072V23.3435H14.2927V23.8681H15.5731Z" fill="white"/>
</svg>
