<svg width="424" height="512" viewBox="0 0 424 512" fill="none" xmlns="http://www.w3.org/2000/svg">
<path d="M86.37 413.44C74.61 413.44 74.61 395.55 86.37 395.55H189.1C188.9 398.5 188.79 401.48 188.79 404.49C188.79 407.5 188.9 410.48 189.1 413.44H86.37ZM109.13 183.72L118.25 205.78H119.57L128.69 183.72H157.36L138.99 223.62L157.36 266.31H128.03L118.12 242.52H116.93L107.15 266.31H79.13L97.11 224.42L79.13 183.72H109.13ZM220.79 266.31H167.93V183.72H194.36V245.16H220.79V266.31ZM228.72 264.85L232.42 243.05C240.52 245.08 247.81 246.09 254.29 246.09C260.76 246.09 265.98 245.82 269.95 245.3V238.69L258.05 237.63C247.31 236.66 239.93 234.09 235.92 229.9C231.91 225.72 229.91 219.53 229.91 211.34C229.91 200.06 232.35 192.31 237.24 188.08C242.13 183.85 250.43 181.74 262.15 181.74C273.87 181.74 284.44 182.84 293.86 185.04L290.56 206.18C282.37 204.86 275.8 204.2 270.87 204.2C265.94 204.2 261.75 204.42 258.32 204.86V211.34L267.83 212.26C279.37 213.41 287.34 216.16 291.75 220.52C296.15 224.88 298.36 230.94 298.36 238.69C298.36 244.24 297.61 248.93 296.11 252.76C294.61 256.59 292.83 259.5 290.76 261.48C288.69 263.47 285.76 264.98 281.97 266.04C278.18 267.1 274.86 267.74 271.99 267.96C269.13 268.18 265.32 268.29 260.56 268.29C249.11 268.29 238.5 267.14 228.72 264.85ZM265.81 24.26V53.36C265.81 119.02 281.12 122.83 334.89 122.83H356.92L265.81 24.26ZM360.14 140.18H338.66C277.64 140.18 248.46 136.09 248.46 53.9V17.35H56.82C35.12 17.35 17.35 35.13 17.35 56.82V321.61H219.2C214.56 327.08 210.37 332.95 206.69 339.15H17.35V428.98C17.35 450.6 35.2 468.45 56.82 468.45H205.86C209.39 474.57 213.42 480.37 217.88 485.79H56.82C25.63 485.79 0 460.17 0 428.98V56.82C0 25.55 25.55 3.75898e-07 56.82 3.75898e-07H263.15C264.493 -0.000394925 265.818 0.310994 267.021 0.909656C268.223 1.50832 269.271 2.37792 270.08 3.45L375.15 117.13C377.34 119.5 377.49 121.79 377.49 124.65V291.51C371.94 288.53 366.14 285.95 360.14 283.8V140.18Z" fill="#262626"/>
<path fill-rule="evenodd" clip-rule="evenodd" d="M316.948 297.45C376.068 297.45 423.998 345.38 423.998 404.5C423.998 463.61 376.068 511.54 316.948 511.54C257.828 511.54 209.898 463.61 209.898 404.5C209.898 345.38 257.828 297.45 316.948 297.45Z" fill="#27B111"/>
<path d="M337.898 452.452L334.128 404.702L351.478 410.772C362.948 415.172 374.748 407.052 365.858 396.952C355.038 384.502 338.598 367.402 326.638 356.012C319.208 348.592 314.908 348.522 307.458 355.952C294.218 368.952 281.218 383.392 268.278 396.822C259.028 406.882 270.578 415.372 282.558 410.772L299.718 404.762C298.468 421.042 296.898 436.602 295.948 452.862C295.948 455.852 298.448 458.252 301.368 458.472C311.678 458.472 322.208 458.712 332.488 458.472C335.408 458.252 337.908 455.852 337.908 452.862L337.898 452.452Z" fill="white"/>
</svg>
