<svg width="86" height="27" viewBox="0 0 86 27" fill="none" xmlns="http://www.w3.org/2000/svg">
<path fill-rule="evenodd" clip-rule="evenodd" d="M32.9807 14.0013H35.7408C35.9013 14.0013 36.0618 14.0983 36.158 14.2923L36.7036 15.3916C36.7678 15.5533 36.9604 15.5856 37.0567 15.4886L38.533 14.0983C38.5972 14.0336 38.6935 14.0013 38.7576 14.0013C38.7576 14.0013 40.0093 14.0013 40.1698 14.0013C40.2982 14.0013 40.2982 14.1306 40.234 14.1953C40.2019 14.2276 37.6665 16.4586 37.6665 16.4586C37.5702 16.5556 37.5381 16.7496 37.6023 16.8789L39.0786 19.6919C39.1428 19.8212 39.0786 19.9505 38.9502 19.9505H36.2543C36.0938 19.9505 35.9334 19.8535 35.8692 19.6919L35.3557 18.6896C35.2915 18.5279 35.0989 18.4956 35.0027 18.5926L33.5905 19.8859C33.5263 19.9505 33.4621 19.9829 33.3659 19.9829H31.9216C31.8253 19.9829 31.7612 19.8212 31.8574 19.7242L34.3608 17.5579C34.4891 17.4609 34.4891 17.2669 34.425 17.1052L32.8844 14.26C32.7882 14.163 32.8524 14.0013 32.9807 14.0013Z" fill="#20ABB1"/>
<path fill-rule="evenodd" clip-rule="evenodd" d="M47.07 14.0013C45.9467 14.0013 41.8708 14.0013 41.0363 14.0013C40.8759 14.0013 40.908 14.1306 40.908 14.1306L41.0042 14.4863C41.0363 14.5833 41.0363 14.6803 41.0042 14.7773L39.7847 19.8535C39.7526 19.9505 39.8489 20.0475 39.9451 20.0475H42.4485C42.5127 20.0475 42.5769 20.0152 42.6089 19.9505L42.8336 19.1745C42.8978 18.9805 43.0583 18.8512 43.2508 18.8512H45.9467C45.9467 18.8512 47.2305 18.9159 47.5193 17.6226L48.097 15.3593C48.0649 15.3269 48.45 14.1306 47.07 14.0013ZM44.1816 18.2046H43.5718C43.315 18.2046 43.1225 17.9459 43.1866 17.6872L43.8606 14.8743C43.8927 14.6803 44.0532 14.551 44.2457 14.551H44.8555C45.1123 14.551 45.3048 14.8096 45.2407 15.0683L44.5667 17.8812C44.5346 18.0752 44.3741 18.2046 44.1816 18.2046Z" fill="#20ABB1"/>
<path fill-rule="evenodd" clip-rule="evenodd" d="M48.771 14.1951C48.8994 14.3891 49.0598 14.7448 48.9635 15.1651L48.097 19.627C48.0649 19.821 48.1612 20.015 48.3217 20.015H50.6966C50.825 20.015 50.9213 19.918 50.9213 19.7887L51.852 15.1004C51.8841 14.9064 52.0125 14.7771 52.1729 14.7771H52.9753C53.1999 14.7771 53.3283 15.0358 53.2962 15.2944L52.9111 17.3314C52.8469 17.5901 53.0074 17.8164 53.232 17.8164H55.0293C55.7354 17.8164 55.6391 17.6547 55.7354 16.8464C55.7354 16.6847 56.0563 15.6178 56.0884 15.4238C56.1526 14.8418 56.0884 14.0334 54.9651 14.0334C53.8418 14.0334 49.0598 14.0334 48.8673 14.0334C48.6747 14.0334 48.771 14.1951 48.771 14.1951Z" fill="#20ABB1"/>
<path fill-rule="evenodd" clip-rule="evenodd" d="M62.796 14.1305C61.7048 14.1305 57.9819 14.1305 57.9819 14.1305C57.9819 14.1305 56.9228 14.1305 56.6661 15.3591C56.5377 16.0058 55.9921 18.6247 55.9921 18.6247C55.9921 18.6247 55.6712 19.9827 56.8587 19.9827H62.0258C62.09 19.9827 62.1542 19.9504 62.1863 19.9181C62.3467 19.7887 62.6998 19.4977 62.7319 19.4654C62.796 19.4331 62.796 19.3361 62.6998 19.3361C61.9295 19.3361 59.1373 19.3361 58.8485 19.3361C58.5275 19.3361 58.3671 18.5601 59.0731 18.5601C59.7471 18.5601 61.3839 18.5601 61.9937 18.5601C62.7639 18.5601 63.1812 18.2691 63.4058 17.2991C63.5984 16.5554 63.6626 16.0381 63.823 15.3915C63.9835 14.8095 63.8551 14.1305 62.796 14.1305ZM60.2285 17.7841H59.4904C59.2657 17.7841 59.1373 17.5254 59.1694 17.2991L59.5866 15.1975C59.6187 15.0035 59.7471 14.9065 59.9076 14.9065H60.6778C60.9025 14.9065 61.0309 15.1651 60.9988 15.3915L60.5495 17.4931C60.4853 17.6548 60.3569 17.7841 60.2285 17.7841Z" fill="#20ABB1"/>
<path fill-rule="evenodd" clip-rule="evenodd" d="M71.7503 14.0013C71.7503 14.0013 66.4868 14.0013 65.9412 14.0013C65.3957 14.0013 64.8821 14.1306 64.6254 15.1329C64.497 15.5856 64.4328 15.9736 64.2724 16.8143C64.2082 17.2022 64.3686 17.7519 64.9784 17.7519H68.0274C68.1878 17.7519 68.3162 17.9459 68.2841 18.1399C68.1878 18.6249 67.9632 19.3685 67.1929 19.3685H64.5933C64.5291 19.3685 64.4649 19.4009 64.4007 19.4332C64.4007 19.4332 63.8551 19.8212 63.791 19.8535C63.7268 19.8859 63.7268 19.9829 63.823 19.9829C64.7538 19.9829 68.7013 19.9829 69.4395 19.9829C70.2739 19.9829 70.6912 19.6919 70.8516 19.0129C70.9158 18.7866 71.0121 18.0106 71.0442 17.7519C71.0442 17.7519 71.3009 16.2969 69.8567 16.2969H67.0324C66.872 16.2969 66.7436 16.1029 66.7757 15.9089C66.8399 15.4886 66.9362 14.8096 67.6743 14.8096C67.9953 14.8096 70.1777 14.8096 70.8195 14.8096C71.4935 14.8096 71.7503 14.357 71.7503 14.0013Z" fill="#20ABB1"/>
<path fill-rule="evenodd" clip-rule="evenodd" d="M79.7417 14.0013C79.7417 14.0013 74.4782 14.0013 73.9326 14.0013C73.387 14.0013 72.8735 14.1306 72.6168 15.1329C72.4884 15.5856 72.4242 15.9736 72.2638 16.8143C72.1996 17.2022 72.36 17.7519 72.9698 17.7519H76.0187C76.1792 17.7519 76.3076 17.9459 76.2755 18.1399C76.1792 18.6249 75.9546 19.3685 75.1843 19.3685H72.5847C72.5205 19.3685 72.4563 19.4009 72.3921 19.4332C72.3921 19.4332 71.8465 19.8212 71.7823 19.8535C71.7182 19.8859 71.7182 19.9829 71.8144 19.9829C72.7452 19.9829 76.6927 19.9829 77.4309 19.9829C78.2653 19.9829 78.6826 19.6919 78.843 19.0129C78.9072 18.7866 79.0035 18.0106 79.0356 17.7519C79.0356 17.7519 79.2923 16.2969 77.8481 16.2969H75.0238C74.8634 16.2969 74.735 16.1029 74.7671 15.9089C74.8313 15.4886 74.9276 14.8096 75.6657 14.8096C75.9867 14.8096 78.169 14.8096 78.8109 14.8096C79.4849 14.8096 79.7417 14.357 79.7417 14.0013Z" fill="#20ABB1"/>
<path fill-rule="evenodd" clip-rule="evenodd" d="M30.8304 7.79314C30.1244 3.23422 26.3052 -0.0637311 21.2343 0.000934554C20.4641 0.000934554 19.4371 0.194931 18.6668 0.421261C17.4473 0.809255 16.4523 1.13258 15.2007 1.48824C14.4946 1.68224 13.2108 2.1349 12.3122 2.39356C12.1838 2.4259 12.2159 2.58756 12.3443 2.61989L14.7514 2.81389C15.0081 2.84622 15.1365 3.10488 14.7834 3.20188C11.6382 4.17187 9.61632 4.85086 5.37991 5.91784C5.02688 6.01484 5.05897 6.2735 5.41201 6.30583C6.43901 6.33816 7.94743 6.3705 9.39166 6.3705C9.7126 6.3705 9.77679 6.85549 9.42375 6.92016C6.85624 7.40515 2.84449 8.08414 0.212781 8.50446C-0.0760648 8.5368 -0.0760648 8.98945 0.244875 9.02179C0.918849 9.05412 1.56073 9.08645 2.2347 9.11879C4.70594 9.24812 6.37483 9.31278 8.81397 9.44211C9.80888 9.47445 10.6112 9.57145 10.6754 10.1211C10.7396 10.6384 10.0335 10.8971 9.58422 10.9294C8.87816 10.9941 7.08089 11.2528 5.76504 11.3821C5.57248 11.4144 5.54038 11.7054 5.76504 11.7377C7.14508 11.9641 8.78187 12.1904 9.80888 12.3197C12.5048 12.6754 12.2159 13.4514 12.2159 13.5807C12.1838 14.2597 11.1889 14.3567 10.8359 14.4214C9.52004 14.68 6.18226 14.5507 3.99987 14.4537C3.77521 14.4537 3.71103 14.8094 3.93568 14.8417C7.65859 15.5207 11.7666 16.2643 16.4844 18.0426C18.3459 18.754 20.6887 19.0773 22.6465 18.7863C28.5518 17.8486 31.6007 13.0957 30.8304 7.79314ZM21.2343 16.62C17.2868 16.62 14.1095 13.3867 14.1095 9.44211C14.1095 5.46518 17.3189 2.26423 21.2343 2.26423C25.1819 2.26423 28.3592 5.49751 28.3592 9.44211C28.3592 13.3867 25.1498 16.62 21.2343 16.62Z" fill="#2A3478"/>
<path d="M21.2343 14.0011C23.7513 14.0011 25.7917 11.9455 25.7917 9.40985C25.7917 6.87417 23.7513 4.81859 21.2343 4.81859C18.7174 4.81859 16.677 6.87417 16.677 9.40985C16.677 11.9455 18.7174 14.0011 21.2343 14.0011Z" fill="#2A3478"/>
<path fill-rule="evenodd" clip-rule="evenodd" d="M21.8441 11.5437C21.5553 11.7054 21.106 11.6407 20.8492 11.3497C20.6246 11.0587 19.5655 9.47439 19.2124 8.92473C19.052 8.66607 19.1161 8.34274 19.3408 8.18108C19.8864 7.79308 20.5283 7.34043 20.5283 7.34043C20.9455 7.08176 21.3627 7.37276 21.3627 7.69609C20.9455 7.98708 20.2073 8.47207 20.079 8.56907C19.5655 8.95707 20.1432 9.60372 20.5283 9.34506C20.785 9.1834 21.2985 8.82773 21.459 8.6984C21.9404 8.37508 22.2935 8.76307 22.3255 9.05406C21.9725 9.31273 21.6195 9.57139 21.1381 9.89472C20.6567 10.2504 21.2023 10.9617 21.6516 10.6707C21.7479 10.606 22.4218 10.1534 22.486 10.0887C22.9032 9.76539 23.2884 10.121 23.3205 10.4444C23.1279 10.5737 22.1972 11.285 21.8441 11.5437Z" fill="#20ABB1"/>
<path d="M39.0786 5.04515H39.0144L36.5111 11.835H34.1682L33.4622 2.45853H35.3878L35.6766 9.47475H35.7408L38.3083 2.45853H40.5549L40.7475 9.47475H40.8117L43.5076 2.45853H45.5937L41.7103 11.835H39.3033L39.0786 5.04515Z" fill="#2A3478"/>
<path d="M51.4027 10.477L51.178 11.8674C51.0176 11.932 50.7608 11.932 50.3436 11.932C49.9906 11.932 49.6696 11.8674 49.4129 11.738C49.1561 11.6087 49.0277 11.3824 48.9635 11.1237H48.8994C48.6105 11.4147 48.3217 11.641 47.9686 11.8027C47.6156 11.932 47.1984 12.029 46.7491 12.029C46.3639 12.029 46.0109 11.9644 45.69 11.8027C45.369 11.641 45.1123 11.4147 44.9197 11.156C44.7271 10.865 44.6309 10.5417 44.6309 10.186C44.6309 9.31306 44.8876 8.73107 45.4332 8.34308C45.9788 7.95508 46.7491 7.76109 47.744 7.69642C48.3538 7.66409 48.8031 7.56709 49.124 7.40543C49.445 7.2761 49.6054 7.01743 49.6054 6.69411C49.6054 6.27378 49.2845 6.07978 48.6426 6.07978C48.3217 6.07978 48.0007 6.17678 47.744 6.37078C47.4551 6.56477 47.2626 6.82344 47.1021 7.1791L45.4332 6.85577C45.69 6.17678 46.1072 5.69179 46.6849 5.33613C47.2626 4.98047 47.9686 4.8188 48.8031 4.8188C49.6375 4.8188 50.2794 4.98047 50.7287 5.33613C51.178 5.69179 51.4027 6.14445 51.4027 6.69411C51.4027 6.82344 51.4027 6.95277 51.3706 7.11443L50.825 10.2507V10.38C50.825 10.477 50.8571 10.5417 50.8892 10.574C50.9213 10.6064 50.9855 10.6387 51.0497 10.6387C51.2101 10.5417 51.3385 10.5094 51.4027 10.477ZM47.9044 8.79574C47.4872 8.8604 47.1342 8.98973 46.8774 9.18373C46.6207 9.37773 46.4923 9.66872 46.4923 9.99205C46.4923 10.2184 46.5886 10.4124 46.7491 10.5417C46.9095 10.671 47.1342 10.7357 47.3909 10.7357C47.8082 10.7357 48.1612 10.6064 48.5142 10.3154C48.8673 10.0244 49.0919 9.63639 49.1882 9.08673L49.3166 8.47241C49.1561 8.60174 48.6747 8.73107 47.9044 8.79574Z" fill="#2A3478"/>
<path d="M56.3131 10.4446L56.0563 11.8672C55.7996 11.9642 55.3823 11.9966 54.8688 11.9966C54.2911 11.9966 53.8418 11.8996 53.5209 11.7056C53.232 11.5116 53.0716 11.1559 53.0716 10.6709C53.0716 10.5416 53.0716 10.3799 53.1037 10.1859L53.8097 6.14434H52.7185L52.9111 4.91569H54.0023L54.3553 2.97572H56.1847L55.8317 4.91569H57.2759L57.1154 6.14434H55.6712L55.0293 9.92728C54.9972 10.0566 54.9972 10.1213 54.9972 10.1536C54.9972 10.3153 55.0293 10.4123 55.1256 10.4446C55.2219 10.4769 55.3502 10.5093 55.5428 10.5093C55.8317 10.5416 56.0884 10.5093 56.3131 10.4446Z" fill="#2A3478"/>
<path d="M62.1542 6.24134C61.9295 6.04734 61.6407 5.98268 61.2876 5.98268C60.9346 5.98268 60.6457 6.07967 60.389 6.24134C60.1322 6.403 60.0039 6.597 60.0039 6.85566C60.0039 7.04966 60.1002 7.21132 60.2606 7.27599C60.4211 7.37299 60.7099 7.46998 61.1272 7.56698L61.8011 7.72865C62.2504 7.85798 62.6356 7.95498 62.9244 8.08431C63.2133 8.21364 63.47 8.40764 63.6626 8.63397C63.8551 8.89263 63.9514 9.21596 63.9514 9.63628C63.9514 10.4123 63.6305 10.9943 62.9886 11.4146C62.3467 11.8349 61.5444 12.0289 60.5495 12.0289C59.6508 12.0289 58.9127 11.8349 58.3671 11.4469C57.8215 11.0589 57.5005 10.5093 57.4684 9.83028L59.1694 9.60395C59.2015 10.0243 59.362 10.3476 59.6187 10.5416C59.8755 10.7356 60.2285 10.8326 60.6778 10.8326C61.063 10.8326 61.3839 10.7356 61.6728 10.5739C61.9616 10.4123 62.09 10.1536 62.09 9.86261C62.09 9.66862 61.9937 9.53928 61.8011 9.40995C61.6086 9.31295 61.3197 9.18362 60.9025 9.08663L60.1964 8.92496C59.8113 8.82796 59.4583 8.73096 59.1694 8.60163C58.8806 8.4723 58.6559 8.2783 58.4634 8.05198C58.2708 7.79331 58.1745 7.46998 58.1745 7.08199C58.1745 6.597 58.335 6.20901 58.6238 5.85334C58.9127 5.49768 59.3299 5.23902 59.8113 5.04502C60.2927 4.85103 60.8062 4.78636 61.3839 4.78636C61.9295 4.78636 62.3788 4.88336 62.8281 5.04502C63.2454 5.20669 63.5984 5.46535 63.8551 5.78868C64.1119 6.11201 64.2403 6.46767 64.2724 6.85566L62.6035 7.08199C62.5072 6.66166 62.3788 6.403 62.1542 6.24134Z" fill="#2A3478"/>
<path d="M68.252 12.0288C67.3213 12.0288 66.5831 11.7701 66.0375 11.2528C65.4919 10.7355 65.2031 10.0565 65.2031 9.18352C65.2031 8.3752 65.3636 7.66387 65.6845 6.98489C66.0054 6.3059 66.4869 5.75624 67.1287 5.36825C67.7706 4.98025 68.5088 4.75392 69.4074 4.75392C70.3381 4.75392 71.0763 5.01258 71.6219 5.52991C72.1675 6.04723 72.4563 6.72622 72.4563 7.59921C72.4563 8.40753 72.2959 9.15118 71.9749 9.83017C71.654 10.5092 71.1726 11.0265 70.5307 11.4468C69.8888 11.8025 69.1507 12.0288 68.252 12.0288ZM69.3432 6.1119C68.8297 6.1119 68.3804 6.3059 68.0595 6.66156C67.7064 7.01722 67.4818 7.43754 67.3213 7.92254C67.1608 8.40753 67.0966 8.82786 67.0966 9.21585C67.0966 9.66851 67.1929 10.0242 67.4176 10.2505C67.6422 10.5092 67.9632 10.6062 68.3483 10.6062C68.8939 10.6062 69.3111 10.4122 69.6642 10.0565C70.0172 9.70084 70.2418 9.28052 70.4023 8.79552C70.5628 8.31053 70.627 7.8902 70.627 7.50221C70.627 7.04955 70.4986 6.72622 70.2739 6.46756C70.0493 6.24123 69.7283 6.1119 69.3432 6.1119Z" fill="#2A3478"/>
<path d="M76.5002 12.0288C75.5695 12.0288 74.8313 11.7701 74.2857 11.2528C73.7401 10.7355 73.4513 10.0565 73.4513 9.18352C73.4513 8.3752 73.6117 7.66387 73.9327 6.98489C74.2536 6.3059 74.735 5.75624 75.3769 5.36825C76.0188 4.98025 76.7569 4.75392 77.6556 4.75392C78.5863 4.75392 79.3245 5.01258 79.8701 5.52991C80.4157 6.04723 80.7045 6.72622 80.7045 7.59921C80.7045 8.40753 80.544 9.15118 80.2231 9.83017C79.9022 10.5092 79.4207 11.0265 78.7789 11.4468C78.137 11.8025 77.3988 12.0288 76.5002 12.0288ZM77.5914 6.1119C77.0779 6.1119 76.6286 6.3059 76.3076 6.66156C75.9546 7.01722 75.7299 7.43754 75.5695 7.92254C75.409 8.40753 75.3448 8.82786 75.3448 9.21585C75.3448 9.66851 75.4411 10.0242 75.6658 10.2505C75.8904 10.5092 76.2113 10.6062 76.5965 10.6062C77.1421 10.6062 77.5593 10.4122 77.9123 10.0565C78.2654 9.70084 78.49 9.28052 78.6505 8.79552C78.811 8.31053 78.8751 7.8902 78.8751 7.50221C78.8751 7.04955 78.7468 6.72622 78.5221 6.46756C78.2975 6.24123 77.9765 6.1119 77.5914 6.1119Z" fill="#2A3478"/>
<path d="M81.6031 3.13743H82.1487V4.68941H82.4697V3.13743H83.0153V2.8141H81.6031V3.13743Z" fill="#203468"/>
<path d="M84.62 2.81413L84.2027 4.07511C84.2027 4.10745 84.1706 4.17211 84.1706 4.20444C84.1706 4.17211 84.1386 4.13978 84.1386 4.10745L83.7213 2.81413H83.3041V4.68944H83.625V3.46079L84.0102 4.68944H84.299L84.6841 3.49312V4.68944H85.0051V2.81413H84.62Z" fill="#203468"/>
<path d="M83.4646 6.20905C82.0845 6.20905 80.9291 5.0774 80.9291 3.65476C80.9291 2.26444 82.0524 1.10046 83.4646 1.10046C84.8446 1.10046 86 2.23211 86 3.65476C86 5.0774 84.8446 6.20905 83.4646 6.20905ZM83.4646 1.45612C82.245 1.45612 81.2501 2.45844 81.2501 3.68709C81.2501 4.91574 82.245 5.91805 83.4646 5.91805C84.6841 5.91805 85.679 4.91574 85.679 3.68709C85.679 2.42611 84.6841 1.45612 83.4646 1.45612Z" fill="#203468"/>
<path fill-rule="evenodd" clip-rule="evenodd" d="M78.843 23.895C78.7147 23.895 78.5863 23.9597 78.49 24.0567C78.3937 24.1537 78.2974 24.3154 78.2653 24.477H79.164V24.4447C79.1961 24.283 79.1961 24.1537 79.1319 24.0567C79.0998 23.9274 79.0035 23.895 78.843 23.895ZM78.5542 25.835C78.2333 25.835 78.0086 25.738 77.8481 25.544C77.6877 25.35 77.6556 25.0913 77.6877 24.768L77.7197 24.671C77.7839 24.3477 77.9123 24.089 78.137 23.8627C78.3616 23.6687 78.6184 23.5717 78.9072 23.5717C79.1961 23.5717 79.3886 23.6687 79.517 23.8304C79.6454 23.992 79.6775 24.2507 79.6454 24.5417L79.6133 24.768H78.2012C78.1691 24.9943 78.1691 25.1883 78.2333 25.3177C78.2974 25.447 78.4258 25.5117 78.6505 25.5117C78.7788 25.5117 78.9072 25.4793 79.0035 25.447C79.0998 25.4147 79.2282 25.35 79.3244 25.2853L79.4528 25.544C79.3565 25.6087 79.2282 25.6733 79.0677 25.738C78.9072 25.8027 78.7147 25.835 78.5542 25.835ZM76.3397 25.5117C76.4681 25.5117 76.5644 25.4793 76.6606 25.3823C76.7569 25.3177 76.8211 25.1883 76.8532 25.059H77.3025C77.2704 25.2853 77.1421 25.447 76.9495 25.5763C76.7569 25.7057 76.5323 25.7703 76.2755 25.7703C75.9546 25.7703 75.7299 25.6733 75.6015 25.447C75.4411 25.253 75.409 24.9943 75.4732 24.671V24.6064C75.5374 24.283 75.6657 24.0244 75.8904 23.8304C76.115 23.6364 76.3718 23.5394 76.6927 23.5394C76.9495 23.5394 77.1421 23.604 77.2704 23.7657C77.3988 23.9274 77.463 24.1214 77.4309 24.3477H76.9816C77.0137 24.186 76.9816 24.089 76.9174 23.992C76.8532 23.895 76.7569 23.8627 76.6286 23.8627C76.4681 23.8627 76.3076 23.9274 76.2113 24.089C76.083 24.2507 76.0188 24.4124 75.9867 24.6387V24.7033C75.9546 24.9297 75.9546 25.1237 76.0188 25.2853C76.0188 25.447 76.1471 25.5117 76.3397 25.5117ZM73.7401 23.9274C73.8364 23.8304 73.9327 23.7334 74.061 23.6687C74.1894 23.604 74.3178 23.5717 74.4462 23.5717C74.6708 23.5717 74.8313 23.6364 74.9276 23.798C75.0239 23.9274 75.056 24.1537 75.0239 24.4447L74.7671 25.7703H74.2857L74.5424 24.4447C74.5745 24.2184 74.5745 24.089 74.5104 23.992C74.4462 23.9274 74.3499 23.8627 74.2215 23.8627C74.1252 23.8627 74.0289 23.895 73.9327 23.9274C73.8364 23.992 73.7722 24.0567 73.708 24.1214L73.4192 25.738H72.9377L73.3229 23.5717H73.7722L73.7401 23.9274ZM71.9428 23.895C71.8145 23.895 71.6861 23.9597 71.5898 24.0567C71.4935 24.1537 71.3972 24.3154 71.3651 24.477H72.2638V24.4447C72.2959 24.283 72.2959 24.1537 72.2317 24.0567C72.1675 23.9274 72.0712 23.895 71.9428 23.895ZM71.6219 25.835C71.301 25.835 71.0763 25.738 70.9158 25.544C70.7554 25.35 70.7233 25.0913 70.7554 24.768L70.7874 24.671C70.8516 24.3477 70.98 24.089 71.2047 23.8627C71.4293 23.6687 71.6861 23.5717 71.9749 23.5717C72.2638 23.5717 72.4563 23.6687 72.5847 23.8304C72.7131 23.992 72.7452 24.2507 72.7131 24.5417L72.681 24.768H71.2689C71.2368 24.9943 71.2368 25.1883 71.301 25.3177C71.3651 25.447 71.4935 25.5117 71.7182 25.5117C71.8465 25.5117 71.9749 25.4793 72.0712 25.447C72.1675 25.4147 72.2959 25.35 72.3921 25.2853L72.5205 25.544C72.4242 25.6087 72.2959 25.6733 72.1354 25.738C71.9749 25.8027 71.8145 25.835 71.6219 25.835ZM70.5949 23.0544H70.1135L70.1777 22.6664H70.6591L70.5949 23.0544ZM70.0814 25.7703H69.6L69.9851 23.604H70.4665L70.0814 25.7703ZM69.5037 23.9597H69.279C69.1827 23.9597 69.0865 23.992 69.0223 24.0567C68.926 24.1214 68.8618 24.186 68.8297 24.283L68.5409 25.8027H68.0595L68.4446 23.6364H68.8939L68.8618 23.9274C68.926 23.8304 69.0223 23.7334 69.1186 23.6687C69.2148 23.604 69.3432 23.5717 69.4395 23.5717C69.4716 23.5717 69.5037 23.5717 69.5358 23.5717C69.5679 23.5717 69.6 23.5717 69.6 23.604L69.5037 23.9597ZM67.0324 23.895C66.9041 23.895 66.7757 23.9597 66.6794 24.0567C66.5831 24.1537 66.4869 24.3154 66.4548 24.477H67.3534V24.4447C67.3855 24.283 67.3855 24.1537 67.3213 24.0567C67.2892 23.9274 67.1929 23.895 67.0324 23.895ZM66.7436 25.835C66.4227 25.835 66.198 25.738 66.0375 25.544C65.8771 25.35 65.845 25.0913 65.8771 24.768L65.9092 24.671C65.9733 24.3477 66.1017 24.089 66.3264 23.8627C66.551 23.6687 66.8078 23.5717 67.0966 23.5717C67.3855 23.5717 67.578 23.6687 67.7064 23.8304C67.8348 23.992 67.8669 24.2507 67.8348 24.5417L67.8027 24.768H66.3906C66.3585 24.9943 66.3585 25.1883 66.4227 25.3177C66.4869 25.447 66.6152 25.5117 66.8399 25.5117C66.9683 25.5117 67.0966 25.4793 67.1929 25.447C67.2892 25.4147 67.4176 25.35 67.5139 25.2853L67.6422 25.544C67.546 25.6087 67.4176 25.6733 67.2571 25.738C67.0966 25.8027 66.9041 25.835 66.7436 25.835ZM65.0426 24.7357C65.0747 24.477 65.0747 24.283 65.0105 24.1214C64.9463 23.9597 64.8501 23.895 64.6575 23.895C64.5612 23.895 64.4649 23.9274 64.3687 23.9597C64.2724 24.0244 64.2082 24.089 64.144 24.1537L63.9514 25.253C63.9835 25.35 64.0156 25.3823 64.1119 25.447C64.1761 25.4793 64.2724 25.5117 64.3687 25.5117C64.5291 25.5117 64.6575 25.447 64.7859 25.3177C64.9142 25.1883 64.9784 24.9943 65.0105 24.768L65.0426 24.7357ZM65.524 24.768C65.4598 25.0913 65.3315 25.35 65.171 25.544C64.9784 25.738 64.7538 25.835 64.4649 25.835C64.3366 25.835 64.2403 25.8027 64.144 25.7703C64.0477 25.738 63.9835 25.6733 63.9193 25.5763L63.7268 26.6433H63.2133L63.7589 23.6364H64.1761V23.895C64.2724 23.798 64.3686 23.7334 64.4649 23.6687C64.5612 23.604 64.6896 23.604 64.8501 23.604C65.1068 23.604 65.2994 23.701 65.4277 23.9274C65.5561 24.1537 65.5882 24.4124 65.524 24.768V24.768ZM62.2504 24.4124L62.8281 23.604H63.4058L62.5072 24.671L63.0528 25.7703H62.5072L62.2184 24.962L61.6407 25.7703H61.0951L62.0258 24.671L61.5123 23.604H62.0579L62.2504 24.4124ZM60.7741 24.4447H59.5866L59.3941 25.4793H60.8062L60.742 25.8027H58.8485L59.362 22.8927H61.2555L61.1913 23.216H59.8113L59.6508 24.1537H60.8383L60.7741 24.4447ZM57.661 23.9597H57.4364C57.3401 23.9597 57.2438 23.992 57.1796 24.0567C57.0833 24.1214 57.0191 24.186 56.987 24.283L56.6982 25.8027H56.2168L56.6019 23.6364H57.0512L57.0191 23.9274C57.0833 23.8304 57.1796 23.7334 57.2759 23.6687C57.3722 23.604 57.5005 23.5717 57.5968 23.5717C57.6289 23.5717 57.661 23.5717 57.6931 23.5717C57.7252 23.5717 57.7573 23.5717 57.7573 23.604L57.661 23.9597ZM55.1898 23.895C55.0614 23.895 54.933 23.9597 54.8367 24.0567C54.7405 24.1537 54.6442 24.3154 54.6121 24.477H55.5107V24.4447C55.5428 24.283 55.5428 24.1537 55.4786 24.0567C55.4465 23.9274 55.3502 23.895 55.1898 23.895ZM54.9009 25.835C54.58 25.835 54.3553 25.738 54.1949 25.544C54.0344 25.35 54.0023 25.0913 54.0344 24.768L54.0665 24.671C54.1307 24.3477 54.259 24.089 54.4837 23.8627C54.7084 23.6687 54.9651 23.5717 55.254 23.5717C55.5428 23.5717 55.7354 23.6687 55.8637 23.8304C55.9921 23.992 56.0242 24.2507 55.9921 24.5417L55.96 24.768H54.5479C54.5158 24.9943 54.5158 25.1883 54.58 25.3177C54.6442 25.447 54.7725 25.5117 54.9972 25.5117C55.1256 25.5117 55.254 25.4793 55.3502 25.447C55.4465 25.4147 55.5749 25.35 55.6712 25.2853L55.7996 25.544C55.7033 25.6087 55.5749 25.6733 55.4144 25.738C55.254 25.8027 55.0614 25.835 54.9009 25.835ZM51.0497 23.895C51.1459 23.798 51.2422 23.701 51.3706 23.6687C51.499 23.604 51.6273 23.5717 51.7878 23.5717C51.9162 23.5717 52.0446 23.604 52.1408 23.6687C52.2371 23.7334 52.3013 23.8304 52.3334 23.9597C52.4297 23.8304 52.526 23.7334 52.6544 23.6687C52.7827 23.604 52.9111 23.5717 53.0716 23.5717C53.2962 23.5717 53.4567 23.6364 53.553 23.798C53.6493 23.9597 53.6814 24.186 53.6172 24.5094L53.3925 25.8027H52.9111L53.1358 24.5094C53.1679 24.283 53.1679 24.1214 53.1358 24.0244C53.0716 23.9274 53.0074 23.895 52.8469 23.895C52.7506 23.895 52.6223 23.9274 52.5581 23.992C52.4618 24.0567 52.3976 24.1537 52.3334 24.283C52.3334 24.3154 52.3334 24.3477 52.3334 24.38C52.3334 24.4124 52.3334 24.4124 52.3334 24.4447L52.0767 25.8027H51.5952L51.8199 24.5094C51.852 24.283 51.852 24.1214 51.7878 24.0244C51.7236 23.9274 51.6594 23.895 51.499 23.895C51.4027 23.895 51.3064 23.9274 51.2101 23.9597C51.1138 24.0244 51.0496 24.089 50.9855 24.1537L50.6966 25.7703H50.2152L50.6003 23.604H51.0497V23.895ZM48.3859 24.7357C48.3538 24.962 48.3538 25.156 48.4179 25.3177C48.4821 25.447 48.6105 25.544 48.8031 25.544C48.9635 25.544 49.124 25.4793 49.2524 25.3177C49.3808 25.156 49.445 24.9943 49.5091 24.768V24.7033C49.5412 24.477 49.5412 24.283 49.477 24.1214C49.4129 23.9597 49.2845 23.895 49.124 23.895C48.9635 23.895 48.8031 23.9597 48.6747 24.1214C48.5463 24.283 48.4821 24.4447 48.45 24.671L48.3859 24.7357ZM47.9044 24.671C47.9686 24.3477 48.097 24.0567 48.3217 23.8627C48.5463 23.6687 48.8031 23.5717 49.124 23.5717C49.445 23.5717 49.6696 23.6687 49.798 23.895C49.9585 24.089 49.9906 24.38 49.9264 24.671V24.7357C49.8622 25.059 49.7338 25.35 49.5091 25.544C49.2845 25.738 49.0277 25.835 48.7068 25.835C48.3859 25.835 48.1612 25.738 48.0007 25.5117C47.8403 25.3177 47.8082 25.059 47.8723 24.7357L47.9044 24.671ZM47.423 23.0867L47.3267 23.6364H47.744L47.6798 23.9274H47.2626L47.0379 25.2207C47.0058 25.35 47.0058 25.4147 47.0379 25.4793C47.07 25.5117 47.1342 25.544 47.1984 25.544C47.2305 25.544 47.2626 25.544 47.2626 25.544C47.2947 25.544 47.3267 25.544 47.3588 25.5117V25.8027C47.2947 25.835 47.2626 25.835 47.1984 25.835C47.1342 25.835 47.07 25.8673 47.0058 25.8673C46.8132 25.8673 46.6849 25.8027 46.5886 25.7057C46.4923 25.6087 46.4602 25.447 46.5244 25.2207L46.7491 23.9274H46.396L46.4602 23.6364H46.8132L46.9095 23.0867H47.423ZM45.4653 25.253C45.4653 25.156 45.4653 25.0913 45.4011 25.0267C45.3369 24.962 45.2085 24.8973 45.0481 24.8327C44.7913 24.7357 44.5988 24.671 44.5025 24.574C44.3741 24.477 44.342 24.3477 44.3741 24.186C44.4062 24.0244 44.5025 23.8627 44.695 23.7657C44.8876 23.6364 45.0802 23.604 45.369 23.604C45.6258 23.604 45.8183 23.6687 45.9788 23.798C46.1393 23.9274 46.1714 24.089 46.1393 24.2507H45.6579C45.69 24.1537 45.6579 24.0567 45.5937 23.992C45.5295 23.9274 45.4332 23.895 45.3048 23.895C45.1765 23.895 45.0802 23.9274 44.9839 23.992C44.8876 24.0567 44.8555 24.1214 44.8555 24.186C44.8555 24.283 44.8555 24.3477 44.9197 24.38C44.9839 24.4124 45.0802 24.477 45.2727 24.574C45.5295 24.6387 45.722 24.7357 45.8504 24.865C45.9788 24.962 46.0109 25.0913 45.9788 25.253C45.9467 25.447 45.8504 25.5763 45.6579 25.7057C45.4653 25.8027 45.2406 25.8673 44.9839 25.8673C44.695 25.8673 44.5025 25.8027 44.342 25.6733C44.1815 25.544 44.1494 25.3823 44.1815 25.1883H44.6309C44.5988 25.3177 44.6309 25.4147 44.7271 25.4793C44.7913 25.544 44.9197 25.5763 45.0481 25.5763C45.1764 25.5763 45.2727 25.544 45.369 25.4793C45.4011 25.3823 45.4653 25.3177 45.4653 25.253ZM43.1545 25.7703V25.4793C43.0582 25.6087 42.962 25.6733 42.8336 25.738C42.7052 25.8027 42.5768 25.835 42.4485 25.835C42.2238 25.835 42.0312 25.7703 41.935 25.6087C41.8387 25.447 41.8066 25.2207 41.8708 24.8973L42.0954 23.6364H42.5768L42.3522 24.8973C42.3201 25.1237 42.3201 25.3177 42.3522 25.3823C42.3843 25.4793 42.4806 25.5117 42.6089 25.5117C42.7373 25.5117 42.8336 25.4793 42.9299 25.447C43.0262 25.3823 43.0903 25.3177 43.1545 25.2207L43.4434 23.604H43.9248L43.5397 25.7703H43.1545ZM41.3894 24.8973C41.3573 25.2207 41.1968 25.447 40.9721 25.5763C40.7475 25.738 40.4586 25.8027 40.1056 25.8027C39.7526 25.8027 39.4958 25.7057 39.3033 25.5117C39.1107 25.3177 39.0465 25.059 39.1107 24.7033L39.2712 23.895C39.3353 23.5394 39.4958 23.2484 39.7205 23.0867C39.9772 22.8927 40.2661 22.7957 40.6191 22.7957C40.9721 22.7957 41.2289 22.8604 41.4215 23.022C41.614 23.1837 41.6461 23.41 41.614 23.701H41.1326C41.1647 23.4747 41.1326 23.313 41.0684 23.2484C40.9721 23.1514 40.8117 23.119 40.587 23.119C40.3944 23.119 40.2019 23.1837 40.0414 23.313C39.8809 23.4424 39.7847 23.6364 39.7526 23.895L39.5921 24.7033C39.5279 24.962 39.56 25.156 39.6563 25.2853C39.7526 25.4147 39.913 25.4793 40.1377 25.4793C40.3303 25.4793 40.5228 25.4147 40.6191 25.3177C40.7475 25.2207 40.8438 25.059 40.8759 24.865H41.3894V24.8973ZM36.5753 25.0267V25.156L37.3776 23.5717H37.9232L36.5432 26.0937C36.4469 26.2553 36.3506 26.3847 36.2222 26.4817C36.0939 26.5787 35.9334 26.6433 35.7408 26.6433C35.7087 26.6433 35.6445 26.6433 35.6124 26.6433C35.5804 26.6433 35.5162 26.6433 35.4841 26.611L35.5804 26.32C35.5804 26.32 35.6124 26.32 35.6445 26.32C35.6766 26.32 35.7087 26.32 35.7087 26.32C35.805 26.32 35.8692 26.2877 35.9655 26.223C36.0297 26.1583 36.0939 26.0613 36.158 25.9967L36.2864 25.7703L35.8371 23.604H36.3827L36.5753 25.0267ZM34.9706 24.7357C35.0027 24.477 35.0027 24.283 34.9706 24.1214C34.9064 23.9597 34.8101 23.895 34.6175 23.895C34.5212 23.895 34.425 23.9274 34.3287 23.992C34.2324 24.0567 34.1682 24.1214 34.104 24.2184L33.9115 25.253C33.9436 25.35 33.9757 25.4147 34.0398 25.4793C34.104 25.544 34.2003 25.544 34.3287 25.544C34.4892 25.544 34.6496 25.4793 34.7459 25.35C34.8422 25.2207 34.9385 25.0267 34.9706 24.8003V24.7357ZM35.452 24.768C35.3878 25.0913 35.2594 25.35 35.0989 25.544C34.9064 25.738 34.6817 25.835 34.3929 25.835C34.2645 25.835 34.1361 25.8027 34.0398 25.738C33.9436 25.6733 33.8794 25.6087 33.8152 25.5117L33.7189 25.8027H33.3017L33.8794 22.6664H34.3608L34.1361 23.8627C34.2324 23.7657 34.3287 23.701 34.425 23.6687C34.5213 23.6364 34.6496 23.604 34.778 23.604C35.0348 23.604 35.2273 23.701 35.3557 23.9274C35.4841 24.1537 35.5162 24.4124 35.452 24.768V24.768ZM30.6058 23.9274C30.7021 23.8304 30.7983 23.7334 30.9267 23.6687C31.0551 23.604 31.1835 23.5717 31.3119 23.5717C31.5365 23.5717 31.697 23.6364 31.7933 23.798C31.8895 23.9274 31.9216 24.1537 31.8895 24.4447L31.6328 25.7703H31.1514L31.4081 24.4447C31.4402 24.2184 31.4402 24.089 31.376 23.992C31.3119 23.9274 31.2156 23.8627 31.0872 23.8627C30.9909 23.8627 30.8946 23.895 30.7983 23.9274C30.7021 23.992 30.6379 24.0567 30.5737 24.1214L30.2848 25.738H29.8034L30.1886 23.5717H30.6379L30.6058 23.9274ZM28.7764 23.895C28.648 23.895 28.5197 23.9597 28.4234 24.0567C28.3271 24.1537 28.2308 24.3154 28.1987 24.477H29.0974V24.4447C29.1295 24.283 29.1295 24.1537 29.0653 24.0567C29.0332 23.9274 28.9369 23.895 28.7764 23.895ZM28.4876 25.835C28.1666 25.835 27.942 25.738 27.7815 25.544C27.621 25.35 27.5889 25.0913 27.621 24.768L27.6531 24.671C27.7173 24.3477 27.8457 24.089 28.0704 23.8627C28.295 23.6687 28.5518 23.5717 28.8406 23.5717C29.1295 23.5717 29.322 23.6687 29.4504 23.8304C29.5788 23.992 29.6109 24.2507 29.5788 24.5417L29.5467 24.768H28.1345C28.1025 24.9943 28.1025 25.1883 28.1666 25.3177C28.2308 25.447 28.3592 25.5117 28.5839 25.5117C28.7122 25.5117 28.8406 25.4793 28.9369 25.447C29.0332 25.4147 29.1616 25.35 29.2578 25.2853L29.3862 25.544C29.2899 25.6087 29.1616 25.6733 29.0011 25.738C28.8085 25.8027 28.6481 25.835 28.4876 25.835ZM26.2731 25.1237V25.2853L26.3373 25.1237L27.0754 23.604H27.5889L26.4015 25.7703H25.9843L25.567 23.604H26.0805L26.2731 25.1237ZM25.2782 23.0544H24.7968L24.861 22.6664H25.3424L25.2782 23.0544ZM24.7968 25.7703H24.3154L24.7005 23.604H25.1819L24.7968 25.7703ZM24.187 23.9597H23.9623C23.866 23.9597 23.7698 23.992 23.7056 24.0567C23.6093 24.1214 23.5451 24.186 23.513 24.283L23.2242 25.8027H22.7428L23.1279 23.6364H23.5772V23.9274C23.6414 23.8304 23.7377 23.7334 23.834 23.6687C23.9302 23.604 24.0586 23.5717 24.1549 23.5717C24.187 23.5717 24.2191 23.5717 24.2512 23.5717C24.2833 23.5717 24.3154 23.5717 24.3154 23.604L24.187 23.9597ZM20.8813 23.1837L20.4641 25.4793H20.9776C21.2022 25.4793 21.4269 25.3823 21.5874 25.2207C21.7799 25.0267 21.8762 24.8327 21.9404 24.5417L22.0046 24.1214C22.0688 23.8304 22.0367 23.604 21.9083 23.4424C21.812 23.2807 21.6195 23.1837 21.3627 23.1837H20.8813V23.1837ZM19.9185 25.7703L20.432 22.8604H21.4269C21.7799 22.8604 22.0688 22.9897 22.2934 23.216C22.486 23.4424 22.5823 23.7657 22.5181 24.1214L22.4539 24.5417C22.3897 24.9297 22.1972 25.2207 21.9404 25.447C21.6516 25.6733 21.3306 25.7703 20.9455 25.7703H19.9185Z" fill="#231F20"/>
</svg>
